<?xml version="1.0" encoding="UTF-8" standalone="no"?>
<!DOCTYPE svg PUBLIC "-//W3C//DTD SVG 1.1//EN"
 "http://www.w3.org/Graphics/SVG/1.1/DTD/svg11.dtd">
<!-- Generated by graphviz version 2.40.1 (20161225.0304)
 -->
<!-- Title: dependencies Pages: 1 -->
<svg width="2309pt" height="284pt"
 viewBox="0.00 0.00 2309.00 284.00" xmlns="http://www.w3.org/2000/svg" xmlns:xlink="http://www.w3.org/1999/xlink">
<g id="graph0" class="graph" transform="scale(1 1) rotate(0) translate(4 280)">
<title>dependencies</title>
<polygon fill="#ffffff" stroke="transparent" points="-4,4 -4,-280 2305,-280 2305,4 -4,4"/>
<text text-anchor="start" x="1129.5091" y="-42.4" font-family="sans-serif" font-weight="bold" font-size="14.00" fill="#000000">Legend</text>
<polygon fill="#ffffb3" stroke="transparent" points="916.5,-10 916.5,-30 936.5,-30 936.5,-10 916.5,-10"/>
<text text-anchor="start" x="940.129" y="-15.4" font-family="sans-serif" font-size="14.00" fill="#000000"> &#160;Declarations</text>
<polygon fill="#8dd3c7" stroke="transparent" points="1029.5,-10 1029.5,-30 1049.5,-30 1049.5,-10 1029.5,-10"/>
<text text-anchor="start" x="1053.2251" y="-15.4" font-family="sans-serif" font-size="14.00" fill="#000000"> &#160;Module</text>
<polygon fill="#80b1d3" stroke="transparent" points="1115.5,-10 1115.5,-30 1135.5,-30 1135.5,-10 1115.5,-10"/>
<text text-anchor="start" x="1139.2812" y="-15.4" font-family="sans-serif" font-size="14.00" fill="#000000"> &#160;Bootstrap</text>
<polygon fill="#fdb462" stroke="transparent" points="1212.5,-10 1212.5,-30 1232.5,-30 1232.5,-10 1212.5,-10"/>
<text text-anchor="start" x="1236.1732" y="-15.4" font-family="sans-serif" font-size="14.00" fill="#000000"> &#160;Providers</text>
<polygon fill="#fb8072" stroke="transparent" points="1308.5,-10 1308.5,-30 1328.5,-30 1328.5,-10 1308.5,-10"/>
<text text-anchor="start" x="1332.2258" y="-15.4" font-family="sans-serif" font-size="14.00" fill="#000000"> &#160;Exports</text>
<g id="clust1" class="cluster">
<title>cluster_AppModuleShared</title>
<polygon fill="none" stroke="#000000" stroke-dasharray="1,5" points="8,-70 8,-268 2293,-268 2293,-70 8,-70"/>
</g>
<g id="clust2" class="cluster">
<title>cluster_AppModuleShared_declarations</title>
<polygon fill="none" stroke="#000000" points="304,-78 304,-130 2285,-130 2285,-78 304,-78"/>
</g>
<g id="clust19" class="cluster">
<title>cluster_AppModuleShared_bootstrap</title>
<polygon fill="none" stroke="#000000" points="1099,-208 1099,-260 1223,-260 1223,-208 1099,-208"/>
</g>
<g id="clust20" class="cluster">
<title>cluster_AppModuleShared_providers</title>
<polygon fill="none" stroke="#000000" points="16,-78 16,-130 296,-130 296,-78 16,-78"/>
</g>
<!-- AppComponent -->
<g id="node1" class="node">
<title>AppComponent</title>
<polygon fill="#ffffb3" stroke="#000000" points="2276.9399,-122 2171.0601,-122 2171.0601,-86 2276.9399,-86 2276.9399,-122"/>
<text text-anchor="middle" x="2224" y="-99.8" font-family="Times,serif" font-size="14.00" fill="#000000">AppComponent</text>
</g>
<!-- AppModuleShared -->
<g id="node15" class="node">
<title>AppModuleShared</title>
<polygon fill="#8dd3c7" stroke="#000000" points="1222.0297,-187 1219.0297,-191 1198.0297,-191 1195.0297,-187 1099.9703,-187 1099.9703,-151 1222.0297,-151 1222.0297,-187"/>
<text text-anchor="middle" x="1161" y="-164.8" font-family="Times,serif" font-size="14.00" fill="#000000">AppModuleShared</text>
</g>
<!-- AppComponent&#45;&gt;AppModuleShared -->
<g id="edge1" class="edge">
<title>AppComponent&#45;&gt;AppModuleShared</title>
<path fill="none" stroke="#000000" d="M2224,-122.3228C2224,-145.6602 2224,-183 2224,-183 2224,-183 1232.3572,-183 1232.3572,-183"/>
<polygon fill="#000000" stroke="#000000" points="1232.3573,-179.5001 1222.3572,-183 1232.3572,-186.5001 1232.3573,-179.5001"/>
</g>
<!-- HeaderComponent -->
<g id="node2" class="node">
<title>HeaderComponent</title>
<polygon fill="#ffffb3" stroke="#000000" points="2152.7437,-122 2031.2563,-122 2031.2563,-86 2152.7437,-86 2152.7437,-122"/>
<text text-anchor="middle" x="2092" y="-99.8" font-family="Times,serif" font-size="14.00" fill="#000000">HeaderComponent</text>
</g>
<!-- HeaderComponent&#45;&gt;AppModuleShared -->
<g id="edge2" class="edge">
<title>HeaderComponent&#45;&gt;AppModuleShared</title>
<path fill="none" stroke="#000000" d="M2092,-122.2921C2092,-144.2057 2092,-178 2092,-178 2092,-178 1232.0855,-178 1232.0855,-178"/>
<polygon fill="#000000" stroke="#000000" points="1232.0855,-174.5001 1222.0855,-178 1232.0855,-181.5001 1232.0855,-174.5001"/>
</g>
<!-- SidenavComponent -->
<g id="node3" class="node">
<title>SidenavComponent</title>
<polygon fill="#ffffb3" stroke="#000000" points="2013.4356,-122 1886.5644,-122 1886.5644,-86 2013.4356,-86 2013.4356,-122"/>
<text text-anchor="middle" x="1950" y="-99.8" font-family="Times,serif" font-size="14.00" fill="#000000">SidenavComponent</text>
</g>
<!-- SidenavComponent&#45;&gt;AppModuleShared -->
<g id="edge3" class="edge">
<title>SidenavComponent&#45;&gt;AppModuleShared</title>
<path fill="none" stroke="#000000" d="M1950,-122.0267C1950,-142.7672 1950,-174 1950,-174 1950,-174 1232.255,-174 1232.255,-174"/>
<polygon fill="#000000" stroke="#000000" points="1232.255,-170.5001 1222.255,-174 1232.2549,-177.5001 1232.255,-170.5001"/>
</g>
<!-- ResidentsComponent -->
<g id="node4" class="node">
<title>ResidentsComponent</title>
<polygon fill="#ffffb3" stroke="#000000" points="1868.7688,-122 1733.2312,-122 1733.2312,-86 1868.7688,-86 1868.7688,-122"/>
<text text-anchor="middle" x="1801" y="-99.8" font-family="Times,serif" font-size="14.00" fill="#000000">ResidentsComponent</text>
</g>
<!-- ResidentsComponent&#45;&gt;AppModuleShared -->
<g id="edge4" class="edge">
<title>ResidentsComponent&#45;&gt;AppModuleShared</title>
<path fill="none" stroke="#000000" d="M1801,-122.1061C1801,-141.3391 1801,-169 1801,-169 1801,-169 1232.076,-169 1232.076,-169"/>
<polygon fill="#000000" stroke="#000000" points="1232.076,-165.5001 1222.076,-169 1232.0759,-172.5001 1232.076,-165.5001"/>
</g>
<!-- SeniorComponent -->
<g id="node5" class="node">
<title>SeniorComponent</title>
<polygon fill="#ffffb3" stroke="#000000" points="1714.8809,-122 1597.1191,-122 1597.1191,-86 1714.8809,-86 1714.8809,-122"/>
<text text-anchor="middle" x="1656" y="-99.8" font-family="Times,serif" font-size="14.00" fill="#000000">SeniorComponent</text>
</g>
<!-- SeniorComponent&#45;&gt;AppModuleShared -->
<g id="edge5" class="edge">
<title>SeniorComponent&#45;&gt;AppModuleShared</title>
<path fill="none" stroke="#000000" d="M1656,-122.302C1656,-140.2699 1656,-165 1656,-165 1656,-165 1232.1932,-165 1232.1932,-165"/>
<polygon fill="#000000" stroke="#000000" points="1232.1932,-161.5001 1222.1932,-165 1232.1931,-168.5001 1232.1932,-161.5001"/>
</g>
<!-- PersonaliaComponent -->
<g id="node6" class="node">
<title>PersonaliaComponent</title>
<polygon fill="#ffffb3" stroke="#000000" points="1578.6456,-122 1439.3544,-122 1439.3544,-86 1578.6456,-86 1578.6456,-122"/>
<text text-anchor="middle" x="1509" y="-99.8" font-family="Times,serif" font-size="14.00" fill="#000000">PersonaliaComponent</text>
</g>
<!-- PersonaliaComponent&#45;&gt;AppModuleShared -->
<g id="edge6" class="edge">
<title>PersonaliaComponent&#45;&gt;AppModuleShared</title>
<path fill="none" stroke="#000000" d="M1509,-122.027C1509,-138.3976 1509,-160 1509,-160 1509,-160 1232.4143,-160 1232.4143,-160"/>
<polygon fill="#000000" stroke="#000000" points="1232.4144,-156.5001 1222.4143,-160 1232.4143,-163.5001 1232.4144,-156.5001"/>
</g>
<!-- AudioComponent -->
<g id="node7" class="node">
<title>AudioComponent</title>
<polygon fill="#ffffb3" stroke="#000000" points="1421.3301,-122 1304.6699,-122 1304.6699,-86 1421.3301,-86 1421.3301,-122"/>
<text text-anchor="middle" x="1363" y="-99.8" font-family="Times,serif" font-size="14.00" fill="#000000">AudioComponent</text>
</g>
<!-- AudioComponent&#45;&gt;AppModuleShared -->
<g id="edge7" class="edge">
<title>AudioComponent&#45;&gt;AppModuleShared</title>
<path fill="none" stroke="#000000" d="M1363,-122.1871C1363,-137.1824 1363,-156 1363,-156 1363,-156 1232.1548,-156 1232.1548,-156"/>
<polygon fill="#000000" stroke="#000000" points="1232.1549,-152.5001 1222.1548,-156 1232.1548,-159.5001 1232.1549,-152.5001"/>
</g>
<!-- GameComponent -->
<g id="node8" class="node">
<title>GameComponent</title>
<polygon fill="#ffffb3" stroke="#000000" points="1286.2591,-122 1171.7409,-122 1171.7409,-86 1286.2591,-86 1286.2591,-122"/>
<text text-anchor="middle" x="1229" y="-99.8" font-family="Times,serif" font-size="14.00" fill="#000000">GameComponent</text>
</g>
<!-- GameComponent&#45;&gt;AppModuleShared -->
<g id="edge8" class="edge">
<title>GameComponent&#45;&gt;AppModuleShared</title>
<path fill="none" stroke="#000000" d="M1196.9425,-122.1061C1196.9425,-122.1061 1196.9425,-140.991 1196.9425,-140.991"/>
<polygon fill="#000000" stroke="#000000" points="1193.4426,-140.9909 1196.9425,-150.991 1200.4426,-140.991 1193.4426,-140.9909"/>
</g>
<!-- PictureComponent -->
<g id="node9" class="node">
<title>PictureComponent</title>
<polygon fill="#ffffb3" stroke="#000000" points="1153.486,-122 1032.514,-122 1032.514,-86 1153.486,-86 1153.486,-122"/>
<text text-anchor="middle" x="1093" y="-99.8" font-family="Times,serif" font-size="14.00" fill="#000000">PictureComponent</text>
</g>
<!-- PictureComponent&#45;&gt;AppModuleShared -->
<g id="edge9" class="edge">
<title>PictureComponent&#45;&gt;AppModuleShared</title>
<path fill="none" stroke="#000000" d="M1126.6143,-122.1061C1126.6143,-122.1061 1126.6143,-140.991 1126.6143,-140.991"/>
<polygon fill="#000000" stroke="#000000" points="1123.1144,-140.9909 1126.6143,-150.991 1130.1144,-140.991 1123.1144,-140.9909"/>
</g>
<!-- VideoComponent -->
<g id="node10" class="node">
<title>VideoComponent</title>
<polygon fill="#ffffb3" stroke="#000000" points="1014.5451,-122 899.4549,-122 899.4549,-86 1014.5451,-86 1014.5451,-122"/>
<text text-anchor="middle" x="957" y="-99.8" font-family="Times,serif" font-size="14.00" fill="#000000">VideoComponent</text>
</g>
<!-- VideoComponent&#45;&gt;AppModuleShared -->
<g id="edge10" class="edge">
<title>VideoComponent&#45;&gt;AppModuleShared</title>
<path fill="none" stroke="#000000" d="M957,-122.1871C957,-137.1824 957,-156 957,-156 957,-156 1089.7933,-156 1089.7933,-156"/>
<polygon fill="#000000" stroke="#000000" points="1089.7933,-159.5001 1099.7933,-156 1089.7932,-152.5001 1089.7933,-159.5001"/>
</g>
<!-- UploadComponent -->
<g id="node11" class="node">
<title>UploadComponent</title>
<polygon fill="#ffffb3" stroke="#000000" points="881.045,-122 758.955,-122 758.955,-86 881.045,-86 881.045,-122"/>
<text text-anchor="middle" x="820" y="-99.8" font-family="Times,serif" font-size="14.00" fill="#000000">UploadComponent</text>
</g>
<!-- UploadComponent&#45;&gt;AppModuleShared -->
<g id="edge11" class="edge">
<title>UploadComponent&#45;&gt;AppModuleShared</title>
<path fill="none" stroke="#000000" d="M820,-122.027C820,-138.3976 820,-160 820,-160 820,-160 1089.6422,-160 1089.6422,-160"/>
<polygon fill="#000000" stroke="#000000" points="1089.6422,-163.5001 1099.6422,-160 1089.6422,-156.5001 1089.6422,-163.5001"/>
</g>
<!-- GlobaltrackingComponent -->
<g id="node12" class="node">
<title>GlobaltrackingComponent</title>
<polygon fill="#ffffb3" stroke="#000000" points="740.8061,-122 575.1939,-122 575.1939,-86 740.8061,-86 740.8061,-122"/>
<text text-anchor="middle" x="658" y="-99.8" font-family="Times,serif" font-size="14.00" fill="#000000">GlobaltrackingComponent</text>
</g>
<!-- GlobaltrackingComponent&#45;&gt;AppModuleShared -->
<g id="edge12" class="edge">
<title>GlobaltrackingComponent&#45;&gt;AppModuleShared</title>
<path fill="none" stroke="#000000" d="M658,-122.302C658,-140.2699 658,-165 658,-165 658,-165 1089.8252,-165 1089.8252,-165"/>
<polygon fill="#000000" stroke="#000000" points="1089.8252,-168.5001 1099.8252,-165 1089.8252,-161.5001 1089.8252,-168.5001"/>
</g>
<!-- UsersComponent -->
<g id="node13" class="node">
<title>UsersComponent</title>
<polygon fill="#ffffb3" stroke="#000000" points="557.7036,-122 444.2964,-122 444.2964,-86 557.7036,-86 557.7036,-122"/>
<text text-anchor="middle" x="501" y="-99.8" font-family="Times,serif" font-size="14.00" fill="#000000">UsersComponent</text>
</g>
<!-- UsersComponent&#45;&gt;AppModuleShared -->
<g id="edge13" class="edge">
<title>UsersComponent&#45;&gt;AppModuleShared</title>
<path fill="none" stroke="#000000" d="M501,-122.1061C501,-141.3391 501,-169 501,-169 501,-169 1089.7969,-169 1089.7969,-169"/>
<polygon fill="#000000" stroke="#000000" points="1089.797,-172.5001 1099.7969,-169 1089.7969,-165.5001 1089.797,-172.5001"/>
</g>
<!-- RadioComponent -->
<g id="node14" class="node">
<title>RadioComponent</title>
<polygon fill="#ffffb3" stroke="#000000" points="426.2744,-122 311.7256,-122 311.7256,-86 426.2744,-86 426.2744,-122"/>
<text text-anchor="middle" x="369" y="-99.8" font-family="Times,serif" font-size="14.00" fill="#000000">RadioComponent</text>
</g>
<!-- RadioComponent&#45;&gt;AppModuleShared -->
<g id="edge14" class="edge">
<title>RadioComponent&#45;&gt;AppModuleShared</title>
<path fill="none" stroke="#000000" d="M369,-122.0267C369,-142.7672 369,-174 369,-174 369,-174 1089.8405,-174 1089.8405,-174"/>
<polygon fill="#000000" stroke="#000000" points="1089.8406,-177.5001 1099.8405,-174 1089.8405,-170.5001 1089.8406,-177.5001"/>
</g>
<!-- AppComponent  -->
<g id="node16" class="node">
<title>AppComponent </title>
<polygon fill="#80b1d3" stroke="#000000" points="1215.439,-252 1106.561,-252 1106.561,-216 1215.439,-216 1215.439,-252"/>
<text text-anchor="middle" x="1161" y="-229.8" font-family="Times,serif" font-size="14.00" fill="#000000">AppComponent </text>
</g>
<!-- AppModuleShared&#45;&gt;AppComponent  -->
<g id="edge15" class="edge">
<title>AppModuleShared&#45;&gt;AppComponent </title>
<path fill="none" stroke="#000000" stroke-dasharray="1,5" d="M1161,-187.1061C1161,-187.1061 1161,-205.991 1161,-205.991"/>
<polygon fill="#000000" stroke="#000000" points="1157.5001,-205.9909 1161,-215.991 1164.5001,-205.991 1157.5001,-205.9909"/>
</g>
<!-- LoginService -->
<g id="node17" class="node">
<title>LoginService</title>
<ellipse fill="#fdb462" stroke="#000000" cx="225" cy="-104" rx="63.1209" ry="18"/>
<text text-anchor="middle" x="225" y="-99.8" font-family="Times,serif" font-size="14.00" fill="#000000">LoginService</text>
</g>
<!-- LoginService&#45;&gt;AppModuleShared -->
<g id="edge16" class="edge">
<title>LoginService&#45;&gt;AppModuleShared</title>
<path fill="none" stroke="#000000" d="M225,-122.2921C225,-144.2057 225,-178 225,-178 225,-178 1089.9475,-178 1089.9475,-178"/>
<polygon fill="#000000" stroke="#000000" points="1089.9475,-181.5001 1099.9475,-178 1089.9474,-174.5001 1089.9475,-181.5001"/>
</g>
<!-- StoreService -->
<g id="node18" class="node">
<title>StoreService</title>
<ellipse fill="#fdb462" stroke="#000000" cx="84" cy="-104" rx="60.2479" ry="18"/>
<text text-anchor="middle" x="84" y="-99.8" font-family="Times,serif" font-size="14.00" fill="#000000">StoreService</text>
</g>
<!-- StoreService&#45;&gt;AppModuleShared -->
<g id="edge17" class="edge">
<title>StoreService&#45;&gt;AppModuleShared</title>
<path fill="none" stroke="#000000" d="M84,-122.3228C84,-145.6602 84,-183 84,-183 84,-183 1089.6193,-183 1089.6193,-183"/>
<polygon fill="#000000" stroke="#000000" points="1089.6194,-186.5001 1099.6193,-183 1089.6193,-179.5001 1089.6194,-186.5001"/>
</g>
</g>
</svg>
