<?xml version="1.0" encoding="UTF-8" standalone="no"?>
<!DOCTYPE svg PUBLIC "-//W3C//DTD SVG 1.1//EN"
 "http://www.w3.org/Graphics/SVG/1.1/DTD/svg11.dtd">
<!-- Generated by graphviz version 2.40.1 (20161225.0304)
 -->
<!-- Title: dependencies Pages: 1 -->
<svg width="2309pt" height="360pt"
 viewBox="0.00 0.00 2309.00 360.00" xmlns="http://www.w3.org/2000/svg" xmlns:xlink="http://www.w3.org/1999/xlink">
<g id="graph0" class="graph" transform="scale(1 1) rotate(0) translate(4 356)">
<title>dependencies</title>
<polygon fill="#ffffff" stroke="transparent" points="-4,4 -4,-356 2305,-356 2305,4 -4,4"/>
<text text-anchor="start" x="1129.5091" y="-42.4" font-family="sans-serif" font-weight="bold" font-size="14.00" fill="#000000">Legend</text>
<polygon fill="#ffffb3" stroke="transparent" points="916.5,-10 916.5,-30 936.5,-30 936.5,-10 916.5,-10"/>
<text text-anchor="start" x="940.129" y="-15.4" font-family="sans-serif" font-size="14.00" fill="#000000"> &#160;Declarations</text>
<polygon fill="#8dd3c7" stroke="transparent" points="1029.5,-10 1029.5,-30 1049.5,-30 1049.5,-10 1029.5,-10"/>
<text text-anchor="start" x="1053.2251" y="-15.4" font-family="sans-serif" font-size="14.00" fill="#000000"> &#160;Module</text>
<polygon fill="#80b1d3" stroke="transparent" points="1115.5,-10 1115.5,-30 1135.5,-30 1135.5,-10 1115.5,-10"/>
<text text-anchor="start" x="1139.2812" y="-15.4" font-family="sans-serif" font-size="14.00" fill="#000000"> &#160;Bootstrap</text>
<polygon fill="#fdb462" stroke="transparent" points="1212.5,-10 1212.5,-30 1232.5,-30 1232.5,-10 1212.5,-10"/>
<text text-anchor="start" x="1236.1732" y="-15.4" font-family="sans-serif" font-size="14.00" fill="#000000"> &#160;Providers</text>
<polygon fill="#fb8072" stroke="transparent" points="1308.5,-10 1308.5,-30 1328.5,-30 1328.5,-10 1308.5,-10"/>
<text text-anchor="start" x="1332.2258" y="-15.4" font-family="sans-serif" font-size="14.00" fill="#000000"> &#160;Exports</text>
<g id="clust1" class="cluster">
<title>cluster_AppModule</title>
<polygon fill="none" stroke="#000000" stroke-dasharray="1,5" points="1084,-146 1084,-344 1238,-344 1238,-146 1084,-146"/>
</g>
<g id="clust3" class="cluster">
<title>cluster_AppModule_imports</title>
<polygon fill="none" stroke="#000000" points="1092,-154 1092,-206 1230,-206 1230,-154 1092,-154"/>
</g>
<g id="clust5" class="cluster">
<title>cluster_AppModule_bootstrap</title>
<polygon fill="none" stroke="#000000" points="1099,-284 1099,-336 1223,-336 1223,-284 1099,-284"/>
</g>
<g id="clust7" class="cluster">
<title>cluster_AppModuleShared</title>
<polygon fill="none" stroke="#000000" stroke-dasharray="1,5" points="8,-70 8,-138 2293,-138 2293,-70 8,-70"/>
</g>
<g id="clust8" class="cluster">
<title>cluster_AppModuleShared_declarations</title>
<polygon fill="none" stroke="#000000" points="304,-78 304,-130 2285,-130 2285,-78 304,-78"/>
</g>
<g id="clust26" class="cluster">
<title>cluster_AppModuleShared_providers</title>
<polygon fill="none" stroke="#000000" points="16,-78 16,-130 296,-130 296,-78 16,-78"/>
</g>
<!-- AppModuleShared -->
<g id="node1" class="node">
<title>AppModuleShared</title>
<polygon fill="#8dd3c7" stroke="#000000" points="1222.0297,-198 1219.0297,-202 1198.0297,-202 1195.0297,-198 1099.9703,-198 1099.9703,-162 1222.0297,-162 1222.0297,-198"/>
<text text-anchor="middle" x="1161" y="-175.8" font-family="Times,serif" font-size="14.00" fill="#000000">AppModuleShared</text>
</g>
<!-- AppModule -->
<g id="node2" class="node">
<title>AppModule</title>
<polygon fill="#8dd3c7" stroke="#000000" points="1202.6571,-263 1199.6571,-267 1178.6571,-267 1175.6571,-263 1119.3429,-263 1119.3429,-227 1202.6571,-227 1202.6571,-263"/>
<text text-anchor="middle" x="1161" y="-240.8" font-family="Times,serif" font-size="14.00" fill="#000000">AppModule</text>
</g>
<!-- AppModuleShared&#45;&gt;AppModule -->
<g id="edge1" class="edge">
<title>AppModuleShared&#45;&gt;AppModule</title>
<path fill="none" stroke="#000000" d="M1147.0573,-198.1061C1147.0573,-198.1061 1147.0573,-216.991 1147.0573,-216.991"/>
<polygon fill="#000000" stroke="#000000" points="1143.5574,-216.9909 1147.0573,-226.991 1150.5574,-216.991 1143.5574,-216.9909"/>
</g>
<!-- AppModuleShared&#45;&gt;AppModule -->
<g id="edge3" class="edge">
<title>AppModuleShared&#45;&gt;AppModule</title>
<path fill="none" stroke="#000000" d="M1174.9427,-198.1061C1174.9427,-198.1061 1174.9427,-216.991 1174.9427,-216.991"/>
<polygon fill="#000000" stroke="#000000" points="1171.4428,-216.9909 1174.9427,-226.991 1178.4428,-216.991 1171.4428,-216.9909"/>
</g>
<!-- AppComponent  -->
<g id="node3" class="node">
<title>AppComponent </title>
<polygon fill="#80b1d3" stroke="#000000" points="1215.439,-328 1106.561,-328 1106.561,-292 1215.439,-292 1215.439,-328"/>
<text text-anchor="middle" x="1161" y="-305.8" font-family="Times,serif" font-size="14.00" fill="#000000">AppComponent </text>
</g>
<!-- AppModuleShared&#45;&gt;AppComponent  -->
<g id="edge19" class="edge">
<title>AppModuleShared&#45;&gt;AppComponent </title>
<path fill="none" stroke="#000000" stroke-dasharray="1,5" d="M1209.1489,-198.0759C1209.1489,-198.0759 1209.1489,-281.6585 1209.1489,-281.6585"/>
<polygon fill="#000000" stroke="#000000" points="1205.6489,-281.6585 1209.1489,-291.6585 1212.6489,-281.6585 1205.6489,-281.6585"/>
</g>
<!-- AppModule&#45;&gt;AppComponent  -->
<g id="edge2" class="edge">
<title>AppModule&#45;&gt;AppComponent </title>
<path fill="none" stroke="#000000" stroke-dasharray="1,5" d="M1174.9427,-263.1061C1174.9427,-263.1061 1174.9427,-281.991 1174.9427,-281.991"/>
<polygon fill="#000000" stroke="#000000" points="1171.4428,-281.9909 1174.9427,-291.991 1178.4428,-281.991 1171.4428,-281.9909"/>
</g>
<!-- AppModule&#45;&gt;AppComponent  -->
<g id="edge4" class="edge">
<title>AppModule&#45;&gt;AppComponent </title>
<path fill="none" stroke="#000000" stroke-dasharray="1,5" d="M1147.0573,-263.1061C1147.0573,-263.1061 1147.0573,-281.991 1147.0573,-281.991"/>
<polygon fill="#000000" stroke="#000000" points="1143.5574,-281.9909 1147.0573,-291.991 1150.5574,-281.991 1143.5574,-281.9909"/>
</g>
<!-- AppComponent -->
<g id="node4" class="node">
<title>AppComponent</title>
<polygon fill="#ffffb3" stroke="#000000" points="2276.9399,-122 2171.0601,-122 2171.0601,-86 2276.9399,-86 2276.9399,-122"/>
<text text-anchor="middle" x="2224" y="-99.8" font-family="Times,serif" font-size="14.00" fill="#000000">AppComponent</text>
</g>
<!-- AppComponent&#45;&gt;AppModuleShared -->
<g id="edge5" class="edge">
<title>AppComponent&#45;&gt;AppModuleShared</title>
<path fill="none" stroke="#000000" d="M2224,-122.2128C2224,-148.5111 2224,-194 2224,-194 2224,-194 1232.3572,-194 1232.3572,-194"/>
<polygon fill="#000000" stroke="#000000" points="1232.3573,-190.5001 1222.3572,-194 1232.3572,-197.5001 1232.3573,-190.5001"/>
</g>
<!-- HeaderComponent -->
<g id="node5" class="node">
<title>HeaderComponent</title>
<polygon fill="#ffffb3" stroke="#000000" points="2152.7437,-122 2031.2563,-122 2031.2563,-86 2152.7437,-86 2152.7437,-122"/>
<text text-anchor="middle" x="2092" y="-99.8" font-family="Times,serif" font-size="14.00" fill="#000000">HeaderComponent</text>
</g>
<!-- HeaderComponent&#45;&gt;AppModuleShared -->
<g id="edge6" class="edge">
<title>HeaderComponent&#45;&gt;AppModuleShared</title>
<path fill="none" stroke="#000000" d="M2092,-122.0263C2092,-146.9773 2092,-189 2092,-189 2092,-189 1232.0855,-189 1232.0855,-189"/>
<polygon fill="#000000" stroke="#000000" points="1232.0855,-185.5001 1222.0855,-189 1232.0855,-192.5001 1232.0855,-185.5001"/>
</g>
<!-- SidenavComponent -->
<g id="node6" class="node">
<title>SidenavComponent</title>
<polygon fill="#ffffb3" stroke="#000000" points="2013.4356,-122 1886.5644,-122 1886.5644,-86 2013.4356,-86 2013.4356,-122"/>
<text text-anchor="middle" x="1950" y="-99.8" font-family="Times,serif" font-size="14.00" fill="#000000">SidenavComponent</text>
</g>
<!-- SidenavComponent&#45;&gt;AppModuleShared -->
<g id="edge7" class="edge">
<title>SidenavComponent&#45;&gt;AppModuleShared</title>
<path fill="none" stroke="#000000" d="M1950,-122.3802C1950,-146.2785 1950,-185 1950,-185 1950,-185 1232.255,-185 1232.255,-185"/>
<polygon fill="#000000" stroke="#000000" points="1232.255,-181.5001 1222.255,-185 1232.2549,-188.5001 1232.255,-181.5001"/>
</g>
<!-- ResidentsComponent -->
<g id="node7" class="node">
<title>ResidentsComponent</title>
<polygon fill="#ffffb3" stroke="#000000" points="1868.7688,-122 1733.2312,-122 1733.2312,-86 1868.7688,-86 1868.7688,-122"/>
<text text-anchor="middle" x="1801" y="-99.8" font-family="Times,serif" font-size="14.00" fill="#000000">ResidentsComponent</text>
</g>
<!-- ResidentsComponent&#45;&gt;AppModuleShared -->
<g id="edge8" class="edge">
<title>ResidentsComponent&#45;&gt;AppModuleShared</title>
<path fill="none" stroke="#000000" d="M1801,-122.0109C1801,-144.4852 1801,-180 1801,-180 1801,-180 1232.076,-180 1232.076,-180"/>
<polygon fill="#000000" stroke="#000000" points="1232.076,-176.5001 1222.076,-180 1232.0759,-183.5001 1232.076,-176.5001"/>
</g>
<!-- SeniorComponent -->
<g id="node8" class="node">
<title>SeniorComponent</title>
<polygon fill="#ffffb3" stroke="#000000" points="1714.8809,-122 1597.1191,-122 1597.1191,-86 1714.8809,-86 1714.8809,-122"/>
<text text-anchor="middle" x="1656" y="-99.8" font-family="Times,serif" font-size="14.00" fill="#000000">SeniorComponent</text>
</g>
<!-- SeniorComponent&#45;&gt;AppModuleShared -->
<g id="edge9" class="edge">
<title>SeniorComponent&#45;&gt;AppModuleShared</title>
<path fill="none" stroke="#000000" d="M1656,-122.1686C1656,-143.498 1656,-176 1656,-176 1656,-176 1232.1932,-176 1232.1932,-176"/>
<polygon fill="#000000" stroke="#000000" points="1232.1932,-172.5001 1222.1932,-176 1232.1931,-179.5001 1232.1932,-172.5001"/>
</g>
<!-- PersonaliaComponent -->
<g id="node9" class="node">
<title>PersonaliaComponent</title>
<polygon fill="#ffffb3" stroke="#000000" points="1578.6456,-122 1439.3544,-122 1439.3544,-86 1578.6456,-86 1578.6456,-122"/>
<text text-anchor="middle" x="1509" y="-99.8" font-family="Times,serif" font-size="14.00" fill="#000000">PersonaliaComponent</text>
</g>
<!-- PersonaliaComponent&#45;&gt;AppModuleShared -->
<g id="edge10" class="edge">
<title>PersonaliaComponent&#45;&gt;AppModuleShared</title>
<path fill="none" stroke="#000000" d="M1509,-122.308C1509,-142.1455 1509,-171 1509,-171 1509,-171 1232.4143,-171 1232.4143,-171"/>
<polygon fill="#000000" stroke="#000000" points="1232.4144,-167.5001 1222.4143,-171 1232.4143,-174.5001 1232.4144,-167.5001"/>
</g>
<!-- AudioComponent -->
<g id="node10" class="node">
<title>AudioComponent</title>
<polygon fill="#ffffb3" stroke="#000000" points="1421.3301,-122 1304.6699,-122 1304.6699,-86 1421.3301,-86 1421.3301,-122"/>
<text text-anchor="middle" x="1363" y="-99.8" font-family="Times,serif" font-size="14.00" fill="#000000">AudioComponent</text>
</g>
<!-- AudioComponent&#45;&gt;AppModuleShared -->
<g id="edge11" class="edge">
<title>AudioComponent&#45;&gt;AppModuleShared</title>
<path fill="none" stroke="#000000" d="M1363,-122.2222C1363,-140.8285 1363,-167 1363,-167 1363,-167 1232.1548,-167 1232.1548,-167"/>
<polygon fill="#000000" stroke="#000000" points="1232.1549,-163.5001 1222.1548,-167 1232.1548,-170.5001 1232.1549,-163.5001"/>
</g>
<!-- GameComponent -->
<g id="node11" class="node">
<title>GameComponent</title>
<polygon fill="#ffffb3" stroke="#000000" points="1286.2591,-122 1171.7409,-122 1171.7409,-86 1286.2591,-86 1286.2591,-122"/>
<text text-anchor="middle" x="1229" y="-99.8" font-family="Times,serif" font-size="14.00" fill="#000000">GameComponent</text>
</g>
<!-- GameComponent&#45;&gt;AppModuleShared -->
<g id="edge12" class="edge">
<title>GameComponent&#45;&gt;AppModuleShared</title>
<path fill="none" stroke="#000000" d="M1196.9425,-122.0109C1196.9425,-122.0109 1196.9425,-151.855 1196.9425,-151.855"/>
<polygon fill="#000000" stroke="#000000" points="1193.4426,-151.8549 1196.9425,-161.855 1200.4426,-151.855 1193.4426,-151.8549"/>
</g>
<!-- PictureComponent -->
<g id="node12" class="node">
<title>PictureComponent</title>
<polygon fill="#ffffb3" stroke="#000000" points="1153.486,-122 1032.514,-122 1032.514,-86 1153.486,-86 1153.486,-122"/>
<text text-anchor="middle" x="1093" y="-99.8" font-family="Times,serif" font-size="14.00" fill="#000000">PictureComponent</text>
</g>
<!-- PictureComponent&#45;&gt;AppModuleShared -->
<g id="edge13" class="edge">
<title>PictureComponent&#45;&gt;AppModuleShared</title>
<path fill="none" stroke="#000000" d="M1126.6143,-122.0109C1126.6143,-122.0109 1126.6143,-151.855 1126.6143,-151.855"/>
<polygon fill="#000000" stroke="#000000" points="1123.1144,-151.8549 1126.6143,-161.855 1130.1144,-151.855 1123.1144,-151.8549"/>
</g>
<!-- VideoComponent -->
<g id="node13" class="node">
<title>VideoComponent</title>
<polygon fill="#ffffb3" stroke="#000000" points="1014.5451,-122 899.4549,-122 899.4549,-86 1014.5451,-86 1014.5451,-122"/>
<text text-anchor="middle" x="957" y="-99.8" font-family="Times,serif" font-size="14.00" fill="#000000">VideoComponent</text>
</g>
<!-- VideoComponent&#45;&gt;AppModuleShared -->
<g id="edge14" class="edge">
<title>VideoComponent&#45;&gt;AppModuleShared</title>
<path fill="none" stroke="#000000" d="M957,-122.2222C957,-140.8285 957,-167 957,-167 957,-167 1089.7933,-167 1089.7933,-167"/>
<polygon fill="#000000" stroke="#000000" points="1089.7933,-170.5001 1099.7933,-167 1089.7932,-163.5001 1089.7933,-170.5001"/>
</g>
<!-- UploadComponent -->
<g id="node14" class="node">
<title>UploadComponent</title>
<polygon fill="#ffffb3" stroke="#000000" points="881.045,-122 758.955,-122 758.955,-86 881.045,-86 881.045,-122"/>
<text text-anchor="middle" x="820" y="-99.8" font-family="Times,serif" font-size="14.00" fill="#000000">UploadComponent</text>
</g>
<!-- UploadComponent&#45;&gt;AppModuleShared -->
<g id="edge15" class="edge">
<title>UploadComponent&#45;&gt;AppModuleShared</title>
<path fill="none" stroke="#000000" d="M820,-122.308C820,-142.1455 820,-171 820,-171 820,-171 1089.6422,-171 1089.6422,-171"/>
<polygon fill="#000000" stroke="#000000" points="1089.6422,-174.5001 1099.6422,-171 1089.6422,-167.5001 1089.6422,-174.5001"/>
</g>
<!-- GlobaltrackingComponent -->
<g id="node15" class="node">
<title>GlobaltrackingComponent</title>
<polygon fill="#ffffb3" stroke="#000000" points="740.8061,-122 575.1939,-122 575.1939,-86 740.8061,-86 740.8061,-122"/>
<text text-anchor="middle" x="658" y="-99.8" font-family="Times,serif" font-size="14.00" fill="#000000">GlobaltrackingComponent</text>
</g>
<!-- GlobaltrackingComponent&#45;&gt;AppModuleShared -->
<g id="edge16" class="edge">
<title>GlobaltrackingComponent&#45;&gt;AppModuleShared</title>
<path fill="none" stroke="#000000" d="M658,-122.1686C658,-143.498 658,-176 658,-176 658,-176 1089.8252,-176 1089.8252,-176"/>
<polygon fill="#000000" stroke="#000000" points="1089.8252,-179.5001 1099.8252,-176 1089.8252,-172.5001 1089.8252,-179.5001"/>
</g>
<!-- UsersComponent -->
<g id="node16" class="node">
<title>UsersComponent</title>
<polygon fill="#ffffb3" stroke="#000000" points="557.7036,-122 444.2964,-122 444.2964,-86 557.7036,-86 557.7036,-122"/>
<text text-anchor="middle" x="501" y="-99.8" font-family="Times,serif" font-size="14.00" fill="#000000">UsersComponent</text>
</g>
<!-- UsersComponent&#45;&gt;AppModuleShared -->
<g id="edge17" class="edge">
<title>UsersComponent&#45;&gt;AppModuleShared</title>
<path fill="none" stroke="#000000" d="M501,-122.0109C501,-144.4852 501,-180 501,-180 501,-180 1089.7969,-180 1089.7969,-180"/>
<polygon fill="#000000" stroke="#000000" points="1089.797,-183.5001 1099.7969,-180 1089.7969,-176.5001 1089.797,-183.5001"/>
</g>
<!-- RadioComponent -->
<g id="node17" class="node">
<title>RadioComponent</title>
<polygon fill="#ffffb3" stroke="#000000" points="426.2744,-122 311.7256,-122 311.7256,-86 426.2744,-86 426.2744,-122"/>
<text text-anchor="middle" x="369" y="-99.8" font-family="Times,serif" font-size="14.00" fill="#000000">RadioComponent</text>
</g>
<!-- RadioComponent&#45;&gt;AppModuleShared -->
<g id="edge18" class="edge">
<title>RadioComponent&#45;&gt;AppModuleShared</title>
<path fill="none" stroke="#000000" d="M369,-122.3802C369,-146.2785 369,-185 369,-185 369,-185 1089.8405,-185 1089.8405,-185"/>
<polygon fill="#000000" stroke="#000000" points="1089.8406,-188.5001 1099.8405,-185 1089.8405,-181.5001 1089.8406,-188.5001"/>
</g>
<!-- LoginService -->
<g id="node18" class="node">
<title>LoginService</title>
<ellipse fill="#fdb462" stroke="#000000" cx="225" cy="-104" rx="63.1209" ry="18"/>
<text text-anchor="middle" x="225" y="-99.8" font-family="Times,serif" font-size="14.00" fill="#000000">LoginService</text>
</g>
<!-- LoginService&#45;&gt;AppModuleShared -->
<g id="edge20" class="edge">
<title>LoginService&#45;&gt;AppModuleShared</title>
<path fill="none" stroke="#000000" d="M225,-122.0263C225,-146.9773 225,-189 225,-189 225,-189 1089.9475,-189 1089.9475,-189"/>
<polygon fill="#000000" stroke="#000000" points="1089.9475,-192.5001 1099.9475,-189 1089.9474,-185.5001 1089.9475,-192.5001"/>
</g>
<!-- StoreService -->
<g id="node19" class="node">
<title>StoreService</title>
<ellipse fill="#fdb462" stroke="#000000" cx="84" cy="-104" rx="60.2479" ry="18"/>
<text text-anchor="middle" x="84" y="-99.8" font-family="Times,serif" font-size="14.00" fill="#000000">StoreService</text>
</g>
<!-- StoreService&#45;&gt;AppModuleShared -->
<g id="edge21" class="edge">
<title>StoreService&#45;&gt;AppModuleShared</title>
<path fill="none" stroke="#000000" d="M84,-122.2128C84,-148.5111 84,-194 84,-194 84,-194 1089.6193,-194 1089.6193,-194"/>
<polygon fill="#000000" stroke="#000000" points="1089.6194,-197.5001 1099.6193,-194 1089.6193,-190.5001 1089.6194,-197.5001"/>
</g>
</g>
</svg>
