<?xml version="1.0" encoding="UTF-8" standalone="no"?>
<!DOCTYPE svg PUBLIC "-//W3C//DTD SVG 1.1//EN"
 "http://www.w3.org/Graphics/SVG/1.1/DTD/svg11.dtd">
<!-- Generated by graphviz version 2.40.1 (20161225.0304)
 -->
<!-- Title: dependencies Pages: 1 -->
<svg width="2384pt" height="211pt"
 viewBox="0.00 0.00 2384.00 211.00" xmlns="http://www.w3.org/2000/svg" xmlns:xlink="http://www.w3.org/1999/xlink">
<g id="graph0" class="graph" transform="scale(1 1) rotate(0) translate(4 207)">
<title>dependencies</title>
<polygon fill="#ffffff" stroke="transparent" points="-4,4 -4,-207 2380,-207 2380,4 -4,4"/>
<text text-anchor="start" x="1167.0091" y="-42.4" font-family="sans-serif" font-weight="bold" font-size="14.00" fill="#000000">Legend</text>
<polygon fill="#ffffb3" stroke="transparent" points="954,-10 954,-30 974,-30 974,-10 954,-10"/>
<text text-anchor="start" x="977.629" y="-15.4" font-family="sans-serif" font-size="14.00" fill="#000000"> &#160;Declarations</text>
<polygon fill="#8dd3c7" stroke="transparent" points="1067,-10 1067,-30 1087,-30 1087,-10 1067,-10"/>
<text text-anchor="start" x="1090.7251" y="-15.4" font-family="sans-serif" font-size="14.00" fill="#000000"> &#160;Module</text>
<polygon fill="#80b1d3" stroke="transparent" points="1153,-10 1153,-30 1173,-30 1173,-10 1153,-10"/>
<text text-anchor="start" x="1176.7812" y="-15.4" font-family="sans-serif" font-size="14.00" fill="#000000"> &#160;Bootstrap</text>
<polygon fill="#fdb462" stroke="transparent" points="1250,-10 1250,-30 1270,-30 1270,-10 1250,-10"/>
<text text-anchor="start" x="1273.6732" y="-15.4" font-family="sans-serif" font-size="14.00" fill="#000000"> &#160;Providers</text>
<polygon fill="#fb8072" stroke="transparent" points="1346,-10 1346,-30 1366,-30 1366,-10 1346,-10"/>
<text text-anchor="start" x="1369.7258" y="-15.4" font-family="sans-serif" font-size="14.00" fill="#000000"> &#160;Exports</text>
<g id="clust1" class="cluster">
<title>cluster_AppModuleShared</title>
<polygon fill="none" stroke="#000000" stroke-dasharray="1,5" points="8,-70 8,-195 2368,-195 2368,-70 8,-70"/>
</g>
<g id="clust2" class="cluster">
<title>cluster_AppModuleShared_declarations</title>
<polygon fill="none" stroke="#000000" points="16,-78 16,-130 2360,-130 2360,-78 16,-78"/>
</g>
<!-- AppComponent -->
<g id="node1" class="node">
<title>AppComponent</title>
<polygon fill="#ffffb3" stroke="#000000" points="2351.9399,-122 2246.0601,-122 2246.0601,-86 2351.9399,-86 2351.9399,-122"/>
<text text-anchor="middle" x="2299" y="-99.8" font-family="Times,serif" font-size="14.00" fill="#000000">AppComponent</text>
</g>
<!-- AppModuleShared -->
<g id="node17" class="node">
<title>AppModuleShared</title>
<polygon fill="#8dd3c7" stroke="#000000" points="1255.0297,-187 1252.0297,-191 1231.0297,-191 1228.0297,-187 1132.9703,-187 1132.9703,-151 1255.0297,-151 1255.0297,-187"/>
<text text-anchor="middle" x="1194" y="-164.8" font-family="Times,serif" font-size="14.00" fill="#000000">AppModuleShared</text>
</g>
<!-- AppComponent&#45;&gt;AppModuleShared -->
<g id="edge1" class="edge">
<title>AppComponent&#45;&gt;AppModuleShared</title>
<path fill="none" stroke="#000000" d="M2299,-122.3228C2299,-145.6602 2299,-183 2299,-183 2299,-183 1265.3799,-183 1265.3799,-183"/>
<polygon fill="#000000" stroke="#000000" points="1265.3799,-179.5001 1255.3799,-183 1265.3799,-186.5001 1265.3799,-179.5001"/>
</g>
<!-- NavMenuComponent -->
<g id="node2" class="node">
<title>NavMenuComponent</title>
<polygon fill="#ffffb3" stroke="#000000" points="2228.8132,-122 2091.1868,-122 2091.1868,-86 2228.8132,-86 2228.8132,-122"/>
<text text-anchor="middle" x="2160" y="-99.8" font-family="Times,serif" font-size="14.00" fill="#000000">NavMenuComponent</text>
</g>
<!-- NavMenuComponent&#45;&gt;AppModuleShared -->
<g id="edge2" class="edge">
<title>NavMenuComponent&#45;&gt;AppModuleShared</title>
<path fill="none" stroke="#000000" d="M2160,-122.2921C2160,-144.2057 2160,-178 2160,-178 2160,-178 1265.1605,-178 1265.1605,-178"/>
<polygon fill="#000000" stroke="#000000" points="1265.1605,-174.5001 1255.1605,-178 1265.1604,-181.5001 1265.1605,-174.5001"/>
</g>
<!-- CounterComponent -->
<g id="node3" class="node">
<title>CounterComponent</title>
<polygon fill="#ffffb3" stroke="#000000" points="2073.4356,-122 1946.5644,-122 1946.5644,-86 2073.4356,-86 2073.4356,-122"/>
<text text-anchor="middle" x="2010" y="-99.8" font-family="Times,serif" font-size="14.00" fill="#000000">CounterComponent</text>
</g>
<!-- CounterComponent&#45;&gt;AppModuleShared -->
<g id="edge3" class="edge">
<title>CounterComponent&#45;&gt;AppModuleShared</title>
<path fill="none" stroke="#000000" d="M2010,-122.0267C2010,-142.7672 2010,-174 2010,-174 2010,-174 1265.3326,-174 1265.3326,-174"/>
<polygon fill="#000000" stroke="#000000" points="1265.3327,-170.5001 1255.3326,-174 1265.3326,-177.5001 1265.3327,-170.5001"/>
</g>
<!-- FetchDataComponent -->
<g id="node4" class="node">
<title>FetchDataComponent</title>
<polygon fill="#ffffb3" stroke="#000000" points="1928.3613,-122 1789.6387,-122 1789.6387,-86 1928.3613,-86 1928.3613,-122"/>
<text text-anchor="middle" x="1859" y="-99.8" font-family="Times,serif" font-size="14.00" fill="#000000">FetchDataComponent</text>
</g>
<!-- FetchDataComponent&#45;&gt;AppModuleShared -->
<g id="edge4" class="edge">
<title>FetchDataComponent&#45;&gt;AppModuleShared</title>
<path fill="none" stroke="#000000" d="M1859,-122.1061C1859,-141.3391 1859,-169 1859,-169 1859,-169 1265.0731,-169 1265.0731,-169"/>
<polygon fill="#000000" stroke="#000000" points="1265.0732,-165.5001 1255.0731,-169 1265.0731,-172.5001 1265.0732,-165.5001"/>
</g>
<!-- SidenavComponent -->
<g id="node5" class="node">
<title>SidenavComponent</title>
<polygon fill="#ffffb3" stroke="#000000" points="1771.4356,-122 1644.5644,-122 1644.5644,-86 1771.4356,-86 1771.4356,-122"/>
<text text-anchor="middle" x="1708" y="-99.8" font-family="Times,serif" font-size="14.00" fill="#000000">SidenavComponent</text>
</g>
<!-- SidenavComponent&#45;&gt;AppModuleShared -->
<g id="edge5" class="edge">
<title>SidenavComponent&#45;&gt;AppModuleShared</title>
<path fill="none" stroke="#000000" d="M1708,-122.302C1708,-140.2699 1708,-165 1708,-165 1708,-165 1265.2352,-165 1265.2352,-165"/>
<polygon fill="#000000" stroke="#000000" points="1265.2353,-161.5001 1255.2352,-165 1265.2352,-168.5001 1265.2353,-161.5001"/>
</g>
<!-- HomeComponent -->
<g id="node6" class="node">
<title>HomeComponent</title>
<polygon fill="#ffffb3" stroke="#000000" points="1626.5451,-122 1511.4549,-122 1511.4549,-86 1626.5451,-86 1626.5451,-122"/>
<text text-anchor="middle" x="1569" y="-99.8" font-family="Times,serif" font-size="14.00" fill="#000000">HomeComponent</text>
</g>
<!-- HomeComponent&#45;&gt;AppModuleShared -->
<g id="edge6" class="edge">
<title>HomeComponent&#45;&gt;AppModuleShared</title>
<path fill="none" stroke="#000000" d="M1569,-122.027C1569,-138.3976 1569,-160 1569,-160 1569,-160 1265.0848,-160 1265.0848,-160"/>
<polygon fill="#000000" stroke="#000000" points="1265.0849,-156.5001 1255.0848,-160 1265.0848,-163.5001 1265.0849,-156.5001"/>
</g>
<!-- HeaderComponent -->
<g id="node7" class="node">
<title>HeaderComponent</title>
<polygon fill="#ffffb3" stroke="#000000" points="1492.7437,-122 1371.2563,-122 1371.2563,-86 1492.7437,-86 1492.7437,-122"/>
<text text-anchor="middle" x="1432" y="-99.8" font-family="Times,serif" font-size="14.00" fill="#000000">HeaderComponent</text>
</g>
<!-- HeaderComponent&#45;&gt;AppModuleShared -->
<g id="edge7" class="edge">
<title>HeaderComponent&#45;&gt;AppModuleShared</title>
<path fill="none" stroke="#000000" d="M1432,-122.1871C1432,-137.1824 1432,-156 1432,-156 1432,-156 1265.2909,-156 1265.2909,-156"/>
<polygon fill="#000000" stroke="#000000" points="1265.2909,-152.5001 1255.2909,-156 1265.2909,-159.5001 1265.2909,-152.5001"/>
</g>
<!-- ResidentsComponent -->
<g id="node8" class="node">
<title>ResidentsComponent</title>
<polygon fill="#ffffb3" stroke="#000000" points="1352.7688,-122 1217.2312,-122 1217.2312,-86 1352.7688,-86 1352.7688,-122"/>
<text text-anchor="middle" x="1285" y="-99.8" font-family="Times,serif" font-size="14.00" fill="#000000">ResidentsComponent</text>
</g>
<!-- ResidentsComponent&#45;&gt;AppModuleShared -->
<g id="edge8" class="edge">
<title>ResidentsComponent&#45;&gt;AppModuleShared</title>
<path fill="none" stroke="#000000" d="M1236.1901,-122.1061C1236.1901,-122.1061 1236.1901,-140.991 1236.1901,-140.991"/>
<polygon fill="#000000" stroke="#000000" points="1232.6901,-140.9909 1236.1901,-150.991 1239.6901,-140.991 1232.6901,-140.9909"/>
</g>
<!-- StationmanagementComponent -->
<g id="node9" class="node">
<title>StationmanagementComponent</title>
<polygon fill="#ffffb3" stroke="#000000" points="1199.0322,-122 1006.9678,-122 1006.9678,-86 1199.0322,-86 1199.0322,-122"/>
<text text-anchor="middle" x="1103" y="-99.8" font-family="Times,serif" font-size="14.00" fill="#000000">StationmanagementComponent</text>
</g>
<!-- StationmanagementComponent&#45;&gt;AppModuleShared -->
<g id="edge9" class="edge">
<title>StationmanagementComponent&#45;&gt;AppModuleShared</title>
<path fill="none" stroke="#000000" d="M1166.0007,-122.1061C1166.0007,-122.1061 1166.0007,-140.991 1166.0007,-140.991"/>
<polygon fill="#000000" stroke="#000000" points="1162.5008,-140.9909 1166.0007,-150.991 1169.5008,-140.991 1162.5008,-140.9909"/>
</g>
<!-- SeniorComponent -->
<g id="node10" class="node">
<title>SeniorComponent</title>
<polygon fill="#ffffb3" stroke="#000000" points="988.8809,-122 871.1191,-122 871.1191,-86 988.8809,-86 988.8809,-122"/>
<text text-anchor="middle" x="930" y="-99.8" font-family="Times,serif" font-size="14.00" fill="#000000">SeniorComponent</text>
</g>
<!-- SeniorComponent&#45;&gt;AppModuleShared -->
<g id="edge10" class="edge">
<title>SeniorComponent&#45;&gt;AppModuleShared</title>
<path fill="none" stroke="#000000" d="M930,-122.1871C930,-137.1824 930,-156 930,-156 930,-156 1122.7695,-156 1122.7695,-156"/>
<polygon fill="#000000" stroke="#000000" points="1122.7696,-159.5001 1132.7695,-156 1122.7695,-152.5001 1122.7696,-159.5001"/>
</g>
<!-- PictureComponent -->
<g id="node11" class="node">
<title>PictureComponent</title>
<polygon fill="#ffffb3" stroke="#000000" points="853.486,-122 732.514,-122 732.514,-86 853.486,-86 853.486,-122"/>
<text text-anchor="middle" x="793" y="-99.8" font-family="Times,serif" font-size="14.00" fill="#000000">PictureComponent</text>
</g>
<!-- PictureComponent&#45;&gt;AppModuleShared -->
<g id="edge11" class="edge">
<title>PictureComponent&#45;&gt;AppModuleShared</title>
<path fill="none" stroke="#000000" d="M793,-122.027C793,-138.3976 793,-160 793,-160 793,-160 1122.6602,-160 1122.6602,-160"/>
<polygon fill="#000000" stroke="#000000" points="1122.6603,-163.5001 1132.6602,-160 1122.6602,-156.5001 1122.6603,-163.5001"/>
</g>
<!-- AudioComponent -->
<g id="node12" class="node">
<title>AudioComponent</title>
<polygon fill="#ffffb3" stroke="#000000" points="714.3301,-122 597.6699,-122 597.6699,-86 714.3301,-86 714.3301,-122"/>
<text text-anchor="middle" x="656" y="-99.8" font-family="Times,serif" font-size="14.00" fill="#000000">AudioComponent</text>
</g>
<!-- AudioComponent&#45;&gt;AppModuleShared -->
<g id="edge12" class="edge">
<title>AudioComponent&#45;&gt;AppModuleShared</title>
<path fill="none" stroke="#000000" d="M656,-122.302C656,-140.2699 656,-165 656,-165 656,-165 1122.8084,-165 1122.8084,-165"/>
<polygon fill="#000000" stroke="#000000" points="1122.8084,-168.5001 1132.8084,-165 1122.8083,-161.5001 1122.8084,-168.5001"/>
</g>
<!-- VideoComponent -->
<g id="node13" class="node">
<title>VideoComponent</title>
<polygon fill="#ffffb3" stroke="#000000" points="579.5451,-122 464.4549,-122 464.4549,-86 579.5451,-86 579.5451,-122"/>
<text text-anchor="middle" x="522" y="-99.8" font-family="Times,serif" font-size="14.00" fill="#000000">VideoComponent</text>
</g>
<!-- VideoComponent&#45;&gt;AppModuleShared -->
<g id="edge13" class="edge">
<title>VideoComponent&#45;&gt;AppModuleShared</title>
<path fill="none" stroke="#000000" d="M522,-122.1061C522,-141.3391 522,-169 522,-169 522,-169 1122.8814,-169 1122.8814,-169"/>
<polygon fill="#000000" stroke="#000000" points="1122.8815,-172.5001 1132.8814,-169 1122.8814,-165.5001 1122.8815,-172.5001"/>
</g>
<!-- GameComponent -->
<g id="node14" class="node">
<title>GameComponent</title>
<polygon fill="#ffffb3" stroke="#000000" points="446.2591,-122 331.7409,-122 331.7409,-86 446.2591,-86 446.2591,-122"/>
<text text-anchor="middle" x="389" y="-99.8" font-family="Times,serif" font-size="14.00" fill="#000000">GameComponent</text>
</g>
<!-- GameComponent&#45;&gt;AppModuleShared -->
<g id="edge14" class="edge">
<title>GameComponent&#45;&gt;AppModuleShared</title>
<path fill="none" stroke="#000000" d="M389,-122.0267C389,-142.7672 389,-174 389,-174 389,-174 1122.8334,-174 1122.8334,-174"/>
<polygon fill="#000000" stroke="#000000" points="1122.8335,-177.5001 1132.8334,-174 1122.8334,-170.5001 1122.8335,-177.5001"/>
</g>
<!-- TrackingComponent -->
<g id="node15" class="node">
<title>TrackingComponent</title>
<polygon fill="#ffffb3" stroke="#000000" points="313.8655,-122 182.1345,-122 182.1345,-86 313.8655,-86 313.8655,-122"/>
<text text-anchor="middle" x="248" y="-99.8" font-family="Times,serif" font-size="14.00" fill="#000000">TrackingComponent</text>
</g>
<!-- TrackingComponent&#45;&gt;AppModuleShared -->
<g id="edge15" class="edge">
<title>TrackingComponent&#45;&gt;AppModuleShared</title>
<path fill="none" stroke="#000000" d="M248,-122.2921C248,-144.2057 248,-178 248,-178 248,-178 1122.6592,-178 1122.6592,-178"/>
<polygon fill="#000000" stroke="#000000" points="1122.6592,-181.5001 1132.6592,-178 1122.6592,-174.5001 1122.6592,-181.5001"/>
</g>
<!-- PersonaliaComponent -->
<g id="node16" class="node">
<title>PersonaliaComponent</title>
<polygon fill="#ffffb3" stroke="#000000" points="163.6456,-122 24.3544,-122 24.3544,-86 163.6456,-86 163.6456,-122"/>
<text text-anchor="middle" x="94" y="-99.8" font-family="Times,serif" font-size="14.00" fill="#000000">PersonaliaComponent</text>
</g>
<!-- PersonaliaComponent&#45;&gt;AppModuleShared -->
<g id="edge16" class="edge">
<title>PersonaliaComponent&#45;&gt;AppModuleShared</title>
<path fill="none" stroke="#000000" d="M94,-122.3228C94,-145.6602 94,-183 94,-183 94,-183 1122.8978,-183 1122.8978,-183"/>
<polygon fill="#000000" stroke="#000000" points="1122.8979,-186.5001 1132.8978,-183 1122.8978,-179.5001 1122.8979,-186.5001"/>
</g>
</g>
</svg>
