<?xml version="1.0" encoding="UTF-8" standalone="no"?>
<!DOCTYPE svg PUBLIC "-//W3C//DTD SVG 1.1//EN"
 "http://www.w3.org/Graphics/SVG/1.1/DTD/svg11.dtd">
<!-- Generated by graphviz version 2.40.1 (20161225.0304)
 -->
<!-- Title: dependencies Pages: 1 -->
<svg width="2802pt" height="360pt"
 viewBox="0.00 0.00 2802.00 360.00" xmlns="http://www.w3.org/2000/svg" xmlns:xlink="http://www.w3.org/1999/xlink">
<g id="graph0" class="graph" transform="scale(1 1) rotate(0) translate(4 356)">
<title>dependencies</title>
<polygon fill="#ffffff" stroke="transparent" points="-4,4 -4,-356 2798,-356 2798,4 -4,4"/>
<text text-anchor="start" x="1376.0091" y="-42.4" font-family="sans-serif" font-weight="bold" font-size="14.00" fill="#000000">Legend</text>
<polygon fill="#ffffb3" stroke="transparent" points="1163,-10 1163,-30 1183,-30 1183,-10 1163,-10"/>
<text text-anchor="start" x="1186.629" y="-15.4" font-family="sans-serif" font-size="14.00" fill="#000000"> &#160;Declarations</text>
<polygon fill="#8dd3c7" stroke="transparent" points="1276,-10 1276,-30 1296,-30 1296,-10 1276,-10"/>
<text text-anchor="start" x="1299.7251" y="-15.4" font-family="sans-serif" font-size="14.00" fill="#000000"> &#160;Module</text>
<polygon fill="#80b1d3" stroke="transparent" points="1362,-10 1362,-30 1382,-30 1382,-10 1362,-10"/>
<text text-anchor="start" x="1385.7812" y="-15.4" font-family="sans-serif" font-size="14.00" fill="#000000"> &#160;Bootstrap</text>
<polygon fill="#fdb462" stroke="transparent" points="1459,-10 1459,-30 1479,-30 1479,-10 1459,-10"/>
<text text-anchor="start" x="1482.6732" y="-15.4" font-family="sans-serif" font-size="14.00" fill="#000000"> &#160;Providers</text>
<polygon fill="#fb8072" stroke="transparent" points="1555,-10 1555,-30 1575,-30 1575,-10 1555,-10"/>
<text text-anchor="start" x="1578.7258" y="-15.4" font-family="sans-serif" font-size="14.00" fill="#000000"> &#160;Exports</text>
<g id="clust1" class="cluster">
<title>cluster_AppModule</title>
<polygon fill="none" stroke="#000000" stroke-dasharray="1,5" points="1299,-146 1299,-344 1453,-344 1453,-146 1299,-146"/>
</g>
<g id="clust3" class="cluster">
<title>cluster_AppModule_imports</title>
<polygon fill="none" stroke="#000000" points="1307,-154 1307,-206 1445,-206 1445,-154 1307,-154"/>
</g>
<g id="clust5" class="cluster">
<title>cluster_AppModule_bootstrap</title>
<polygon fill="none" stroke="#000000" points="1314,-284 1314,-336 1438,-336 1438,-284 1314,-284"/>
</g>
<g id="clust7" class="cluster">
<title>cluster_AppModuleShared</title>
<polygon fill="none" stroke="#000000" stroke-dasharray="1,5" points="8,-70 8,-138 2786,-138 2786,-70 8,-70"/>
</g>
<g id="clust8" class="cluster">
<title>cluster_AppModuleShared_declarations</title>
<polygon fill="none" stroke="#000000" points="304,-78 304,-130 2778,-130 2778,-78 304,-78"/>
</g>
<g id="clust29" class="cluster">
<title>cluster_AppModuleShared_providers</title>
<polygon fill="none" stroke="#000000" points="16,-78 16,-130 296,-130 296,-78 16,-78"/>
</g>
<!-- AppModuleShared -->
<g id="node1" class="node">
<title>AppModuleShared</title>
<polygon fill="#8dd3c7" stroke="#000000" points="1437.0297,-198 1434.0297,-202 1413.0297,-202 1410.0297,-198 1314.9703,-198 1314.9703,-162 1437.0297,-162 1437.0297,-198"/>
<text text-anchor="middle" x="1376" y="-175.8" font-family="Times,serif" font-size="14.00" fill="#000000">AppModuleShared</text>
</g>
<!-- AppModule -->
<g id="node2" class="node">
<title>AppModule</title>
<polygon fill="#8dd3c7" stroke="#000000" points="1417.6571,-263 1414.6571,-267 1393.6571,-267 1390.6571,-263 1334.3429,-263 1334.3429,-227 1417.6571,-227 1417.6571,-263"/>
<text text-anchor="middle" x="1376" y="-240.8" font-family="Times,serif" font-size="14.00" fill="#000000">AppModule</text>
</g>
<!-- AppModuleShared&#45;&gt;AppModule -->
<g id="edge1" class="edge">
<title>AppModuleShared&#45;&gt;AppModule</title>
<path fill="none" stroke="#000000" d="M1362.0573,-198.1061C1362.0573,-198.1061 1362.0573,-216.991 1362.0573,-216.991"/>
<polygon fill="#000000" stroke="#000000" points="1358.5574,-216.9909 1362.0573,-226.991 1365.5574,-216.991 1358.5574,-216.9909"/>
</g>
<!-- AppModuleShared&#45;&gt;AppModule -->
<g id="edge3" class="edge">
<title>AppModuleShared&#45;&gt;AppModule</title>
<path fill="none" stroke="#000000" d="M1389.9427,-198.1061C1389.9427,-198.1061 1389.9427,-216.991 1389.9427,-216.991"/>
<polygon fill="#000000" stroke="#000000" points="1386.4428,-216.9909 1389.9427,-226.991 1393.4428,-216.991 1386.4428,-216.9909"/>
</g>
<!-- AppComponent  -->
<g id="node3" class="node">
<title>AppComponent </title>
<polygon fill="#80b1d3" stroke="#000000" points="1430.439,-328 1321.561,-328 1321.561,-292 1430.439,-292 1430.439,-328"/>
<text text-anchor="middle" x="1376" y="-305.8" font-family="Times,serif" font-size="14.00" fill="#000000">AppComponent </text>
</g>
<!-- AppModuleShared&#45;&gt;AppComponent  -->
<g id="edge22" class="edge">
<title>AppModuleShared&#45;&gt;AppComponent </title>
<path fill="none" stroke="#000000" stroke-dasharray="1,5" d="M1327.8512,-198.0759C1327.8512,-198.0759 1327.8512,-281.6585 1327.8512,-281.6585"/>
<polygon fill="#000000" stroke="#000000" points="1324.3512,-281.6585 1327.8512,-291.6585 1331.3512,-281.6585 1324.3512,-281.6585"/>
</g>
<!-- AppModule&#45;&gt;AppComponent  -->
<g id="edge2" class="edge">
<title>AppModule&#45;&gt;AppComponent </title>
<path fill="none" stroke="#000000" stroke-dasharray="1,5" d="M1389.9427,-263.1061C1389.9427,-263.1061 1389.9427,-281.991 1389.9427,-281.991"/>
<polygon fill="#000000" stroke="#000000" points="1386.4428,-281.9909 1389.9427,-291.991 1393.4428,-281.991 1386.4428,-281.9909"/>
</g>
<!-- AppModule&#45;&gt;AppComponent  -->
<g id="edge4" class="edge">
<title>AppModule&#45;&gt;AppComponent </title>
<path fill="none" stroke="#000000" stroke-dasharray="1,5" d="M1362.0573,-263.1061C1362.0573,-263.1061 1362.0573,-281.991 1362.0573,-281.991"/>
<polygon fill="#000000" stroke="#000000" points="1358.5574,-281.9909 1362.0573,-291.991 1365.5574,-281.991 1358.5574,-281.9909"/>
</g>
<!-- AppComponent -->
<g id="node4" class="node">
<title>AppComponent</title>
<polygon fill="#ffffb3" stroke="#000000" points="2769.9399,-122 2664.0601,-122 2664.0601,-86 2769.9399,-86 2769.9399,-122"/>
<text text-anchor="middle" x="2717" y="-99.8" font-family="Times,serif" font-size="14.00" fill="#000000">AppComponent</text>
</g>
<!-- AppComponent&#45;&gt;AppModuleShared -->
<g id="edge5" class="edge">
<title>AppComponent&#45;&gt;AppModuleShared</title>
<path fill="none" stroke="#000000" d="M2717,-122.4152C2717,-149.0057 2717,-195 2717,-195 2717,-195 1447.1046,-195 1447.1046,-195"/>
<polygon fill="#000000" stroke="#000000" points="1447.1046,-191.5001 1437.1046,-195 1447.1046,-198.5001 1447.1046,-191.5001"/>
</g>
<!-- StationmanagementComponent -->
<g id="node5" class="node">
<title>StationmanagementComponent</title>
<polygon fill="#ffffb3" stroke="#000000" points="2646.0322,-122 2453.9678,-122 2453.9678,-86 2646.0322,-86 2646.0322,-122"/>
<text text-anchor="middle" x="2550" y="-99.8" font-family="Times,serif" font-size="14.00" fill="#000000">StationmanagementComponent</text>
</g>
<!-- StationmanagementComponent&#45;&gt;AppModuleShared -->
<g id="edge6" class="edge">
<title>StationmanagementComponent&#45;&gt;AppModuleShared</title>
<path fill="none" stroke="#000000" d="M2550,-122.0265C2550,-147.5093 2550,-191 2550,-191 2550,-191 1447.0562,-191 1447.0562,-191"/>
<polygon fill="#000000" stroke="#000000" points="1447.0562,-187.5001 1437.0562,-191 1447.0561,-194.5001 1447.0562,-187.5001"/>
</g>
<!-- HeaderComponent -->
<g id="node6" class="node">
<title>HeaderComponent</title>
<polygon fill="#ffffb3" stroke="#000000" points="2435.7437,-122 2314.2563,-122 2314.2563,-86 2435.7437,-86 2435.7437,-122"/>
<text text-anchor="middle" x="2375" y="-99.8" font-family="Times,serif" font-size="14.00" fill="#000000">HeaderComponent</text>
</g>
<!-- HeaderComponent&#45;&gt;AppModuleShared -->
<g id="edge7" class="edge">
<title>HeaderComponent&#45;&gt;AppModuleShared</title>
<path fill="none" stroke="#000000" d="M2375,-122.2267C2375,-146.9318 2375,-188 2375,-188 2375,-188 1447.3626,-188 1447.3626,-188"/>
<polygon fill="#000000" stroke="#000000" points="1447.3626,-184.5001 1437.3626,-188 1447.3625,-191.5001 1447.3626,-184.5001"/>
</g>
<!-- SidenavComponent -->
<g id="node7" class="node">
<title>SidenavComponent</title>
<polygon fill="#ffffb3" stroke="#000000" points="2296.4356,-122 2169.5644,-122 2169.5644,-86 2296.4356,-86 2296.4356,-122"/>
<text text-anchor="middle" x="2233" y="-99.8" font-family="Times,serif" font-size="14.00" fill="#000000">SidenavComponent</text>
</g>
<!-- SidenavComponent&#45;&gt;AppModuleShared -->
<g id="edge8" class="edge">
<title>SidenavComponent&#45;&gt;AppModuleShared</title>
<path fill="none" stroke="#000000" d="M2233,-122.1532C2233,-145.7566 2233,-184 2233,-184 2233,-184 1447.2894,-184 1447.2894,-184"/>
<polygon fill="#000000" stroke="#000000" points="1447.2894,-180.5001 1437.2894,-184 1447.2894,-187.5001 1447.2894,-180.5001"/>
</g>
<!-- ResidentsComponent -->
<g id="node8" class="node">
<title>ResidentsComponent</title>
<polygon fill="#ffffb3" stroke="#000000" points="2151.7688,-122 2016.2312,-122 2016.2312,-86 2151.7688,-86 2151.7688,-122"/>
<text text-anchor="middle" x="2084" y="-99.8" font-family="Times,serif" font-size="14.00" fill="#000000">ResidentsComponent</text>
</g>
<!-- ResidentsComponent&#45;&gt;AppModuleShared -->
<g id="edge9" class="edge">
<title>ResidentsComponent&#45;&gt;AppModuleShared</title>
<path fill="none" stroke="#000000" d="M2084,-122.0109C2084,-144.4852 2084,-180 2084,-180 2084,-180 1447.2838,-180 1447.2838,-180"/>
<polygon fill="#000000" stroke="#000000" points="1447.2839,-176.5001 1437.2838,-180 1447.2838,-183.5001 1447.2839,-176.5001"/>
</g>
<!-- SeniorComponent -->
<g id="node9" class="node">
<title>SeniorComponent</title>
<polygon fill="#ffffb3" stroke="#000000" points="1997.8809,-122 1880.1191,-122 1880.1191,-86 1997.8809,-86 1997.8809,-122"/>
<text text-anchor="middle" x="1939" y="-99.8" font-family="Times,serif" font-size="14.00" fill="#000000">SeniorComponent</text>
</g>
<!-- SeniorComponent&#45;&gt;AppModuleShared -->
<g id="edge10" class="edge">
<title>SeniorComponent&#45;&gt;AppModuleShared</title>
<path fill="none" stroke="#000000" d="M1939,-122.0449C1939,-143.6623 1939,-177 1939,-177 1939,-177 1447.054,-177 1447.054,-177"/>
<polygon fill="#000000" stroke="#000000" points="1447.054,-173.5001 1437.054,-177 1447.0539,-180.5001 1447.054,-173.5001"/>
</g>
<!-- PersonaliaComponent -->
<g id="node10" class="node">
<title>PersonaliaComponent</title>
<polygon fill="#ffffb3" stroke="#000000" points="1861.6456,-122 1722.3544,-122 1722.3544,-86 1861.6456,-86 1861.6456,-122"/>
<text text-anchor="middle" x="1792" y="-99.8" font-family="Times,serif" font-size="14.00" fill="#000000">PersonaliaComponent</text>
</g>
<!-- PersonaliaComponent&#45;&gt;AppModuleShared -->
<g id="edge11" class="edge">
<title>PersonaliaComponent&#45;&gt;AppModuleShared</title>
<path fill="none" stroke="#000000" d="M1792,-122.1289C1792,-142.5724 1792,-173 1792,-173 1792,-173 1447.3822,-173 1447.3822,-173"/>
<polygon fill="#000000" stroke="#000000" points="1447.3823,-169.5001 1437.3822,-173 1447.3822,-176.5001 1447.3823,-169.5001"/>
</g>
<!-- AudioComponent -->
<g id="node11" class="node">
<title>AudioComponent</title>
<polygon fill="#ffffb3" stroke="#000000" points="1704.3301,-122 1587.6699,-122 1587.6699,-86 1704.3301,-86 1704.3301,-122"/>
<text text-anchor="middle" x="1646" y="-99.8" font-family="Times,serif" font-size="14.00" fill="#000000">AudioComponent</text>
</g>
<!-- AudioComponent&#45;&gt;AppModuleShared -->
<g id="edge12" class="edge">
<title>AudioComponent&#45;&gt;AppModuleShared</title>
<path fill="none" stroke="#000000" d="M1646,-122.0348C1646,-141.5762 1646,-170 1646,-170 1646,-170 1447.2672,-170 1447.2672,-170"/>
<polygon fill="#000000" stroke="#000000" points="1447.2672,-166.5001 1437.2672,-170 1447.2671,-173.5001 1447.2672,-166.5001"/>
</g>
<!-- GameComponent -->
<g id="node12" class="node">
<title>GameComponent</title>
<polygon fill="#ffffb3" stroke="#000000" points="1569.2591,-122 1454.7409,-122 1454.7409,-86 1569.2591,-86 1569.2591,-122"/>
<text text-anchor="middle" x="1512" y="-99.8" font-family="Times,serif" font-size="14.00" fill="#000000">GameComponent</text>
</g>
<!-- GameComponent&#45;&gt;AppModuleShared -->
<g id="edge13" class="edge">
<title>GameComponent&#45;&gt;AppModuleShared</title>
<path fill="none" stroke="#000000" d="M1512,-122.2667C1512,-140.5552 1512,-166 1512,-166 1512,-166 1447.2365,-166 1447.2365,-166"/>
<polygon fill="#000000" stroke="#000000" points="1447.2366,-162.5001 1437.2365,-166 1447.2365,-169.5001 1447.2366,-162.5001"/>
</g>
<!-- PictureComponent -->
<g id="node13" class="node">
<title>PictureComponent</title>
<polygon fill="#ffffb3" stroke="#000000" points="1436.486,-122 1315.514,-122 1315.514,-86 1436.486,-86 1436.486,-122"/>
<text text-anchor="middle" x="1376" y="-99.8" font-family="Times,serif" font-size="14.00" fill="#000000">PictureComponent</text>
</g>
<!-- PictureComponent&#45;&gt;AppModuleShared -->
<g id="edge14" class="edge">
<title>PictureComponent&#45;&gt;AppModuleShared</title>
<path fill="none" stroke="#000000" d="M1376,-122.0109C1376,-122.0109 1376,-151.855 1376,-151.855"/>
<polygon fill="#000000" stroke="#000000" points="1372.5001,-151.8549 1376,-161.855 1379.5001,-151.855 1372.5001,-151.8549"/>
</g>
<!-- VideoComponent -->
<g id="node14" class="node">
<title>VideoComponent</title>
<polygon fill="#ffffb3" stroke="#000000" points="1297.5451,-122 1182.4549,-122 1182.4549,-86 1297.5451,-86 1297.5451,-122"/>
<text text-anchor="middle" x="1240" y="-99.8" font-family="Times,serif" font-size="14.00" fill="#000000">VideoComponent</text>
</g>
<!-- VideoComponent&#45;&gt;AppModuleShared -->
<g id="edge15" class="edge">
<title>VideoComponent&#45;&gt;AppModuleShared</title>
<path fill="none" stroke="#000000" d="M1240,-122.2667C1240,-140.5552 1240,-166 1240,-166 1240,-166 1304.7635,-166 1304.7635,-166"/>
<polygon fill="#000000" stroke="#000000" points="1304.7635,-169.5001 1314.7635,-166 1304.7634,-162.5001 1304.7635,-169.5001"/>
</g>
<!-- UploadComponent -->
<g id="node15" class="node">
<title>UploadComponent</title>
<polygon fill="#ffffb3" stroke="#000000" points="1164.045,-122 1041.955,-122 1041.955,-86 1164.045,-86 1164.045,-122"/>
<text text-anchor="middle" x="1103" y="-99.8" font-family="Times,serif" font-size="14.00" fill="#000000">UploadComponent</text>
</g>
<!-- UploadComponent&#45;&gt;AppModuleShared -->
<g id="edge16" class="edge">
<title>UploadComponent&#45;&gt;AppModuleShared</title>
<path fill="none" stroke="#000000" d="M1103,-122.0348C1103,-141.5762 1103,-170 1103,-170 1103,-170 1304.7335,-170 1304.7335,-170"/>
<polygon fill="#000000" stroke="#000000" points="1304.7335,-173.5001 1314.7335,-170 1304.7334,-166.5001 1304.7335,-173.5001"/>
</g>
<!-- TrackingComponent -->
<g id="node16" class="node">
<title>TrackingComponent</title>
<polygon fill="#ffffb3" stroke="#000000" points="1023.8655,-122 892.1345,-122 892.1345,-86 1023.8655,-86 1023.8655,-122"/>
<text text-anchor="middle" x="958" y="-99.8" font-family="Times,serif" font-size="14.00" fill="#000000">TrackingComponent</text>
</g>
<!-- TrackingComponent&#45;&gt;AppModuleShared -->
<g id="edge17" class="edge">
<title>TrackingComponent&#45;&gt;AppModuleShared</title>
<path fill="none" stroke="#000000" d="M958,-122.1289C958,-142.5724 958,-173 958,-173 958,-173 1304.7716,-173 1304.7716,-173"/>
<polygon fill="#000000" stroke="#000000" points="1304.7716,-176.5001 1314.7716,-173 1304.7715,-169.5001 1304.7716,-176.5001"/>
</g>
<!-- GlobaltrackingComponent -->
<g id="node17" class="node">
<title>GlobaltrackingComponent</title>
<polygon fill="#ffffb3" stroke="#000000" points="873.8061,-122 708.1939,-122 708.1939,-86 873.8061,-86 873.8061,-122"/>
<text text-anchor="middle" x="791" y="-99.8" font-family="Times,serif" font-size="14.00" fill="#000000">GlobaltrackingComponent</text>
</g>
<!-- GlobaltrackingComponent&#45;&gt;AppModuleShared -->
<g id="edge18" class="edge">
<title>GlobaltrackingComponent&#45;&gt;AppModuleShared</title>
<path fill="none" stroke="#000000" d="M791,-122.0449C791,-143.6623 791,-177 791,-177 791,-177 1304.7756,-177 1304.7756,-177"/>
<polygon fill="#000000" stroke="#000000" points="1304.7756,-180.5001 1314.7756,-177 1304.7756,-173.5001 1304.7756,-180.5001"/>
</g>
<!-- LoginComponent -->
<g id="node18" class="node">
<title>LoginComponent</title>
<polygon fill="#ffffb3" stroke="#000000" points="690.2758,-122 575.7242,-122 575.7242,-86 690.2758,-86 690.2758,-122"/>
<text text-anchor="middle" x="633" y="-99.8" font-family="Times,serif" font-size="14.00" fill="#000000">LoginComponent</text>
</g>
<!-- LoginComponent&#45;&gt;AppModuleShared -->
<g id="edge19" class="edge">
<title>LoginComponent&#45;&gt;AppModuleShared</title>
<path fill="none" stroke="#000000" d="M633,-122.0109C633,-144.4852 633,-180 633,-180 633,-180 1304.8815,-180 1304.8815,-180"/>
<polygon fill="#000000" stroke="#000000" points="1304.8815,-183.5001 1314.8815,-180 1304.8814,-176.5001 1304.8815,-183.5001"/>
</g>
<!-- UsersComponent -->
<g id="node19" class="node">
<title>UsersComponent</title>
<polygon fill="#ffffb3" stroke="#000000" points="557.7036,-122 444.2964,-122 444.2964,-86 557.7036,-86 557.7036,-122"/>
<text text-anchor="middle" x="501" y="-99.8" font-family="Times,serif" font-size="14.00" fill="#000000">UsersComponent</text>
</g>
<!-- UsersComponent&#45;&gt;AppModuleShared -->
<g id="edge20" class="edge">
<title>UsersComponent&#45;&gt;AppModuleShared</title>
<path fill="none" stroke="#000000" d="M501,-122.1532C501,-145.7566 501,-184 501,-184 501,-184 1304.8195,-184 1304.8195,-184"/>
<polygon fill="#000000" stroke="#000000" points="1304.8195,-187.5001 1314.8195,-184 1304.8194,-180.5001 1304.8195,-187.5001"/>
</g>
<!-- RadioComponent -->
<g id="node20" class="node">
<title>RadioComponent</title>
<polygon fill="#ffffb3" stroke="#000000" points="426.2744,-122 311.7256,-122 311.7256,-86 426.2744,-86 426.2744,-122"/>
<text text-anchor="middle" x="369" y="-99.8" font-family="Times,serif" font-size="14.00" fill="#000000">RadioComponent</text>
</g>
<!-- RadioComponent&#45;&gt;AppModuleShared -->
<g id="edge21" class="edge">
<title>RadioComponent&#45;&gt;AppModuleShared</title>
<path fill="none" stroke="#000000" d="M369,-122.2267C369,-146.9318 369,-188 369,-188 369,-188 1304.9,-188 1304.9,-188"/>
<polygon fill="#000000" stroke="#000000" points="1304.9,-191.5001 1314.9,-188 1304.8999,-184.5001 1304.9,-191.5001"/>
</g>
<!-- LoginService -->
<g id="node21" class="node">
<title>LoginService</title>
<ellipse fill="#fdb462" stroke="#000000" cx="225" cy="-104" rx="63.1209" ry="18"/>
<text text-anchor="middle" x="225" y="-99.8" font-family="Times,serif" font-size="14.00" fill="#000000">LoginService</text>
</g>
<!-- LoginService&#45;&gt;AppModuleShared -->
<g id="edge23" class="edge">
<title>LoginService&#45;&gt;AppModuleShared</title>
<path fill="none" stroke="#000000" d="M225,-122.0265C225,-147.5093 225,-191 225,-191 225,-191 1304.9299,-191 1304.9299,-191"/>
<polygon fill="#000000" stroke="#000000" points="1304.9299,-194.5001 1314.9299,-191 1304.9299,-187.5001 1304.9299,-194.5001"/>
</g>
<!-- StoreService -->
<g id="node22" class="node">
<title>StoreService</title>
<ellipse fill="#fdb462" stroke="#000000" cx="84" cy="-104" rx="60.2479" ry="18"/>
<text text-anchor="middle" x="84" y="-99.8" font-family="Times,serif" font-size="14.00" fill="#000000">StoreService</text>
</g>
<!-- StoreService&#45;&gt;AppModuleShared -->
<g id="edge24" class="edge">
<title>StoreService&#45;&gt;AppModuleShared</title>
<path fill="none" stroke="#000000" d="M84,-122.4152C84,-149.0057 84,-195 84,-195 84,-195 1304.5533,-195 1304.5533,-195"/>
<polygon fill="#000000" stroke="#000000" points="1304.5534,-198.5001 1314.5533,-195 1304.5533,-191.5001 1304.5534,-198.5001"/>
</g>
</g>
</svg>
