<?xml version="1.0" encoding="UTF-8" standalone="no"?>
<!DOCTYPE svg PUBLIC "-//W3C//DTD SVG 1.1//EN"
 "http://www.w3.org/Graphics/SVG/1.1/DTD/svg11.dtd">
<!-- Generated by graphviz version 2.40.1 (20161225.0304)
 -->
<!-- Title: dependencies Pages: 1 -->
<svg width="2802pt" height="284pt"
 viewBox="0.00 0.00 2802.00 284.00" xmlns="http://www.w3.org/2000/svg" xmlns:xlink="http://www.w3.org/1999/xlink">
<g id="graph0" class="graph" transform="scale(1 1) rotate(0) translate(4 280)">
<title>dependencies</title>
<polygon fill="#ffffff" stroke="transparent" points="-4,4 -4,-280 2798,-280 2798,4 -4,4"/>
<text text-anchor="start" x="1376.0091" y="-42.4" font-family="sans-serif" font-weight="bold" font-size="14.00" fill="#000000">Legend</text>
<polygon fill="#ffffb3" stroke="transparent" points="1163,-10 1163,-30 1183,-30 1183,-10 1163,-10"/>
<text text-anchor="start" x="1186.629" y="-15.4" font-family="sans-serif" font-size="14.00" fill="#000000"> &#160;Declarations</text>
<polygon fill="#8dd3c7" stroke="transparent" points="1276,-10 1276,-30 1296,-30 1296,-10 1276,-10"/>
<text text-anchor="start" x="1299.7251" y="-15.4" font-family="sans-serif" font-size="14.00" fill="#000000"> &#160;Module</text>
<polygon fill="#80b1d3" stroke="transparent" points="1362,-10 1362,-30 1382,-30 1382,-10 1362,-10"/>
<text text-anchor="start" x="1385.7812" y="-15.4" font-family="sans-serif" font-size="14.00" fill="#000000"> &#160;Bootstrap</text>
<polygon fill="#fdb462" stroke="transparent" points="1459,-10 1459,-30 1479,-30 1479,-10 1459,-10"/>
<text text-anchor="start" x="1482.6732" y="-15.4" font-family="sans-serif" font-size="14.00" fill="#000000"> &#160;Providers</text>
<polygon fill="#fb8072" stroke="transparent" points="1555,-10 1555,-30 1575,-30 1575,-10 1555,-10"/>
<text text-anchor="start" x="1578.7258" y="-15.4" font-family="sans-serif" font-size="14.00" fill="#000000"> &#160;Exports</text>
<g id="clust1" class="cluster">
<title>cluster_AppModuleShared</title>
<polygon fill="none" stroke="#000000" stroke-dasharray="1,5" points="8,-70 8,-268 2786,-268 2786,-70 8,-70"/>
</g>
<g id="clust2" class="cluster">
<title>cluster_AppModuleShared_declarations</title>
<polygon fill="none" stroke="#000000" points="304,-78 304,-130 2778,-130 2778,-78 304,-78"/>
</g>
<g id="clust22" class="cluster">
<title>cluster_AppModuleShared_bootstrap</title>
<polygon fill="none" stroke="#000000" points="1314,-208 1314,-260 1438,-260 1438,-208 1314,-208"/>
</g>
<g id="clust23" class="cluster">
<title>cluster_AppModuleShared_providers</title>
<polygon fill="none" stroke="#000000" points="16,-78 16,-130 296,-130 296,-78 16,-78"/>
</g>
<!-- AppComponent -->
<g id="node1" class="node">
<title>AppComponent</title>
<polygon fill="#ffffb3" stroke="#000000" points="2769.9399,-122 2664.0601,-122 2664.0601,-86 2769.9399,-86 2769.9399,-122"/>
<text text-anchor="middle" x="2717" y="-99.8" font-family="Times,serif" font-size="14.00" fill="#000000">AppComponent</text>
</g>
<!-- AppModuleShared -->
<g id="node18" class="node">
<title>AppModuleShared</title>
<polygon fill="#8dd3c7" stroke="#000000" points="1437.0297,-187 1434.0297,-191 1413.0297,-191 1410.0297,-187 1314.9703,-187 1314.9703,-151 1437.0297,-151 1437.0297,-187"/>
<text text-anchor="middle" x="1376" y="-164.8" font-family="Times,serif" font-size="14.00" fill="#000000">AppModuleShared</text>
</g>
<!-- AppComponent&#45;&gt;AppModuleShared -->
<g id="edge1" class="edge">
<title>AppComponent&#45;&gt;AppModuleShared</title>
<path fill="none" stroke="#000000" d="M2717,-122.1532C2717,-145.7566 2717,-184 2717,-184 2717,-184 1447.1046,-184 1447.1046,-184"/>
<polygon fill="#000000" stroke="#000000" points="1447.1046,-180.5001 1437.1046,-184 1447.1046,-187.5001 1447.1046,-180.5001"/>
</g>
<!-- StationmanagementComponent -->
<g id="node2" class="node">
<title>StationmanagementComponent</title>
<polygon fill="#ffffb3" stroke="#000000" points="2646.0322,-122 2453.9678,-122 2453.9678,-86 2646.0322,-86 2646.0322,-122"/>
<text text-anchor="middle" x="2550" y="-99.8" font-family="Times,serif" font-size="14.00" fill="#000000">StationmanagementComponent</text>
</g>
<!-- StationmanagementComponent&#45;&gt;AppModuleShared -->
<g id="edge2" class="edge">
<title>StationmanagementComponent&#45;&gt;AppModuleShared</title>
<path fill="none" stroke="#000000" d="M2550,-122.0109C2550,-144.4852 2550,-180 2550,-180 2550,-180 1447.0562,-180 1447.0562,-180"/>
<polygon fill="#000000" stroke="#000000" points="1447.0562,-176.5001 1437.0562,-180 1447.0561,-183.5001 1447.0562,-176.5001"/>
</g>
<!-- HeaderComponent -->
<g id="node3" class="node">
<title>HeaderComponent</title>
<polygon fill="#ffffb3" stroke="#000000" points="2435.7437,-122 2314.2563,-122 2314.2563,-86 2435.7437,-86 2435.7437,-122"/>
<text text-anchor="middle" x="2375" y="-99.8" font-family="Times,serif" font-size="14.00" fill="#000000">HeaderComponent</text>
</g>
<!-- HeaderComponent&#45;&gt;AppModuleShared -->
<g id="edge3" class="edge">
<title>HeaderComponent&#45;&gt;AppModuleShared</title>
<path fill="none" stroke="#000000" d="M2375,-122.0449C2375,-143.6623 2375,-177 2375,-177 2375,-177 1447.3626,-177 1447.3626,-177"/>
<polygon fill="#000000" stroke="#000000" points="1447.3626,-173.5001 1437.3626,-177 1447.3625,-180.5001 1447.3626,-173.5001"/>
</g>
<!-- SidenavComponent -->
<g id="node4" class="node">
<title>SidenavComponent</title>
<polygon fill="#ffffb3" stroke="#000000" points="2296.4356,-122 2169.5644,-122 2169.5644,-86 2296.4356,-86 2296.4356,-122"/>
<text text-anchor="middle" x="2233" y="-99.8" font-family="Times,serif" font-size="14.00" fill="#000000">SidenavComponent</text>
</g>
<!-- SidenavComponent&#45;&gt;AppModuleShared -->
<g id="edge4" class="edge">
<title>SidenavComponent&#45;&gt;AppModuleShared</title>
<path fill="none" stroke="#000000" d="M2233,-122.1289C2233,-142.5724 2233,-173 2233,-173 2233,-173 1447.2894,-173 1447.2894,-173"/>
<polygon fill="#000000" stroke="#000000" points="1447.2894,-169.5001 1437.2894,-173 1447.2894,-176.5001 1447.2894,-169.5001"/>
</g>
<!-- ResidentsComponent -->
<g id="node5" class="node">
<title>ResidentsComponent</title>
<polygon fill="#ffffb3" stroke="#000000" points="2151.7688,-122 2016.2312,-122 2016.2312,-86 2151.7688,-86 2151.7688,-122"/>
<text text-anchor="middle" x="2084" y="-99.8" font-family="Times,serif" font-size="14.00" fill="#000000">ResidentsComponent</text>
</g>
<!-- ResidentsComponent&#45;&gt;AppModuleShared -->
<g id="edge5" class="edge">
<title>ResidentsComponent&#45;&gt;AppModuleShared</title>
<path fill="none" stroke="#000000" d="M2084,-122.1061C2084,-141.3391 2084,-169 2084,-169 2084,-169 1447.2838,-169 1447.2838,-169"/>
<polygon fill="#000000" stroke="#000000" points="1447.2839,-165.5001 1437.2838,-169 1447.2838,-172.5001 1447.2839,-165.5001"/>
</g>
<!-- SeniorComponent -->
<g id="node6" class="node">
<title>SeniorComponent</title>
<polygon fill="#ffffb3" stroke="#000000" points="1997.8809,-122 1880.1191,-122 1880.1191,-86 1997.8809,-86 1997.8809,-122"/>
<text text-anchor="middle" x="1939" y="-99.8" font-family="Times,serif" font-size="14.00" fill="#000000">SeniorComponent</text>
</g>
<!-- SeniorComponent&#45;&gt;AppModuleShared -->
<g id="edge6" class="edge">
<title>SeniorComponent&#45;&gt;AppModuleShared</title>
<path fill="none" stroke="#000000" d="M1939,-122.2667C1939,-140.5552 1939,-166 1939,-166 1939,-166 1447.054,-166 1447.054,-166"/>
<polygon fill="#000000" stroke="#000000" points="1447.054,-162.5001 1437.054,-166 1447.0539,-169.5001 1447.054,-162.5001"/>
</g>
<!-- PersonaliaComponent -->
<g id="node7" class="node">
<title>PersonaliaComponent</title>
<polygon fill="#ffffb3" stroke="#000000" points="1861.6456,-122 1722.3544,-122 1722.3544,-86 1861.6456,-86 1861.6456,-122"/>
<text text-anchor="middle" x="1792" y="-99.8" font-family="Times,serif" font-size="14.00" fill="#000000">PersonaliaComponent</text>
</g>
<!-- PersonaliaComponent&#45;&gt;AppModuleShared -->
<g id="edge7" class="edge">
<title>PersonaliaComponent&#45;&gt;AppModuleShared</title>
<path fill="none" stroke="#000000" d="M1792,-122.0336C1792,-139.0597 1792,-162 1792,-162 1792,-162 1447.3822,-162 1447.3822,-162"/>
<polygon fill="#000000" stroke="#000000" points="1447.3823,-158.5001 1437.3822,-162 1447.3822,-165.5001 1447.3823,-158.5001"/>
</g>
<!-- AudioComponent -->
<g id="node8" class="node">
<title>AudioComponent</title>
<polygon fill="#ffffb3" stroke="#000000" points="1704.3301,-122 1587.6699,-122 1587.6699,-86 1704.3301,-86 1704.3301,-122"/>
<text text-anchor="middle" x="1646" y="-99.8" font-family="Times,serif" font-size="14.00" fill="#000000">AudioComponent</text>
</g>
<!-- AudioComponent&#45;&gt;AppModuleShared -->
<g id="edge8" class="edge">
<title>AudioComponent&#45;&gt;AppModuleShared</title>
<path fill="none" stroke="#000000" d="M1646,-122.0091C1646,-138.0494 1646,-159 1646,-159 1646,-159 1447.2672,-159 1447.2672,-159"/>
<polygon fill="#000000" stroke="#000000" points="1447.2672,-155.5001 1437.2672,-159 1447.2671,-162.5001 1447.2672,-155.5001"/>
</g>
<!-- GameComponent -->
<g id="node9" class="node">
<title>GameComponent</title>
<polygon fill="#ffffb3" stroke="#000000" points="1569.2591,-122 1454.7409,-122 1454.7409,-86 1569.2591,-86 1569.2591,-122"/>
<text text-anchor="middle" x="1512" y="-99.8" font-family="Times,serif" font-size="14.00" fill="#000000">GameComponent</text>
</g>
<!-- GameComponent&#45;&gt;AppModuleShared -->
<g id="edge9" class="edge">
<title>GameComponent&#45;&gt;AppModuleShared</title>
<path fill="none" stroke="#000000" d="M1512,-122.1243C1512,-136.7832 1512,-155 1512,-155 1512,-155 1447.2365,-155 1447.2365,-155"/>
<polygon fill="#000000" stroke="#000000" points="1447.2366,-151.5001 1437.2365,-155 1447.2365,-158.5001 1447.2366,-151.5001"/>
</g>
<!-- PictureComponent -->
<g id="node10" class="node">
<title>PictureComponent</title>
<polygon fill="#ffffb3" stroke="#000000" points="1436.486,-122 1315.514,-122 1315.514,-86 1436.486,-86 1436.486,-122"/>
<text text-anchor="middle" x="1376" y="-99.8" font-family="Times,serif" font-size="14.00" fill="#000000">PictureComponent</text>
</g>
<!-- PictureComponent&#45;&gt;AppModuleShared -->
<g id="edge10" class="edge">
<title>PictureComponent&#45;&gt;AppModuleShared</title>
<path fill="none" stroke="#000000" d="M1376,-122.1061C1376,-122.1061 1376,-140.991 1376,-140.991"/>
<polygon fill="#000000" stroke="#000000" points="1372.5001,-140.9909 1376,-150.991 1379.5001,-140.991 1372.5001,-140.9909"/>
</g>
<!-- VideoComponent -->
<g id="node11" class="node">
<title>VideoComponent</title>
<polygon fill="#ffffb3" stroke="#000000" points="1297.5451,-122 1182.4549,-122 1182.4549,-86 1297.5451,-86 1297.5451,-122"/>
<text text-anchor="middle" x="1240" y="-99.8" font-family="Times,serif" font-size="14.00" fill="#000000">VideoComponent</text>
</g>
<!-- VideoComponent&#45;&gt;AppModuleShared -->
<g id="edge11" class="edge">
<title>VideoComponent&#45;&gt;AppModuleShared</title>
<path fill="none" stroke="#000000" d="M1240,-122.1243C1240,-136.7832 1240,-155 1240,-155 1240,-155 1304.7635,-155 1304.7635,-155"/>
<polygon fill="#000000" stroke="#000000" points="1304.7635,-158.5001 1314.7635,-155 1304.7634,-151.5001 1304.7635,-158.5001"/>
</g>
<!-- UploadComponent -->
<g id="node12" class="node">
<title>UploadComponent</title>
<polygon fill="#ffffb3" stroke="#000000" points="1164.045,-122 1041.955,-122 1041.955,-86 1164.045,-86 1164.045,-122"/>
<text text-anchor="middle" x="1103" y="-99.8" font-family="Times,serif" font-size="14.00" fill="#000000">UploadComponent</text>
</g>
<!-- UploadComponent&#45;&gt;AppModuleShared -->
<g id="edge12" class="edge">
<title>UploadComponent&#45;&gt;AppModuleShared</title>
<path fill="none" stroke="#000000" d="M1103,-122.0091C1103,-138.0494 1103,-159 1103,-159 1103,-159 1304.7335,-159 1304.7335,-159"/>
<polygon fill="#000000" stroke="#000000" points="1304.7335,-162.5001 1314.7335,-159 1304.7334,-155.5001 1304.7335,-162.5001"/>
</g>
<!-- TrackingComponent -->
<g id="node13" class="node">
<title>TrackingComponent</title>
<polygon fill="#ffffb3" stroke="#000000" points="1023.8655,-122 892.1345,-122 892.1345,-86 1023.8655,-86 1023.8655,-122"/>
<text text-anchor="middle" x="958" y="-99.8" font-family="Times,serif" font-size="14.00" fill="#000000">TrackingComponent</text>
</g>
<!-- TrackingComponent&#45;&gt;AppModuleShared -->
<g id="edge13" class="edge">
<title>TrackingComponent&#45;&gt;AppModuleShared</title>
<path fill="none" stroke="#000000" d="M958,-122.0336C958,-139.0597 958,-162 958,-162 958,-162 1304.7716,-162 1304.7716,-162"/>
<polygon fill="#000000" stroke="#000000" points="1304.7716,-165.5001 1314.7716,-162 1304.7715,-158.5001 1304.7716,-165.5001"/>
</g>
<!-- GlobaltrackingComponent -->
<g id="node14" class="node">
<title>GlobaltrackingComponent</title>
<polygon fill="#ffffb3" stroke="#000000" points="873.8061,-122 708.1939,-122 708.1939,-86 873.8061,-86 873.8061,-122"/>
<text text-anchor="middle" x="791" y="-99.8" font-family="Times,serif" font-size="14.00" fill="#000000">GlobaltrackingComponent</text>
</g>
<!-- GlobaltrackingComponent&#45;&gt;AppModuleShared -->
<g id="edge14" class="edge">
<title>GlobaltrackingComponent&#45;&gt;AppModuleShared</title>
<path fill="none" stroke="#000000" d="M791,-122.2667C791,-140.5552 791,-166 791,-166 791,-166 1304.7756,-166 1304.7756,-166"/>
<polygon fill="#000000" stroke="#000000" points="1304.7756,-169.5001 1314.7756,-166 1304.7756,-162.5001 1304.7756,-169.5001"/>
</g>
<!-- LoginComponent -->
<g id="node15" class="node">
<title>LoginComponent</title>
<polygon fill="#ffffb3" stroke="#000000" points="690.2758,-122 575.7242,-122 575.7242,-86 690.2758,-86 690.2758,-122"/>
<text text-anchor="middle" x="633" y="-99.8" font-family="Times,serif" font-size="14.00" fill="#000000">LoginComponent</text>
</g>
<!-- LoginComponent&#45;&gt;AppModuleShared -->
<g id="edge15" class="edge">
<title>LoginComponent&#45;&gt;AppModuleShared</title>
<path fill="none" stroke="#000000" d="M633,-122.1061C633,-141.3391 633,-169 633,-169 633,-169 1304.8815,-169 1304.8815,-169"/>
<polygon fill="#000000" stroke="#000000" points="1304.8815,-172.5001 1314.8815,-169 1304.8814,-165.5001 1304.8815,-172.5001"/>
</g>
<!-- UsersComponent -->
<g id="node16" class="node">
<title>UsersComponent</title>
<polygon fill="#ffffb3" stroke="#000000" points="557.7036,-122 444.2964,-122 444.2964,-86 557.7036,-86 557.7036,-122"/>
<text text-anchor="middle" x="501" y="-99.8" font-family="Times,serif" font-size="14.00" fill="#000000">UsersComponent</text>
</g>
<!-- UsersComponent&#45;&gt;AppModuleShared -->
<g id="edge16" class="edge">
<title>UsersComponent&#45;&gt;AppModuleShared</title>
<path fill="none" stroke="#000000" d="M501,-122.1289C501,-142.5724 501,-173 501,-173 501,-173 1304.8195,-173 1304.8195,-173"/>
<polygon fill="#000000" stroke="#000000" points="1304.8195,-176.5001 1314.8195,-173 1304.8194,-169.5001 1304.8195,-176.5001"/>
</g>
<!-- RadioComponent -->
<g id="node17" class="node">
<title>RadioComponent</title>
<polygon fill="#ffffb3" stroke="#000000" points="426.2744,-122 311.7256,-122 311.7256,-86 426.2744,-86 426.2744,-122"/>
<text text-anchor="middle" x="369" y="-99.8" font-family="Times,serif" font-size="14.00" fill="#000000">RadioComponent</text>
</g>
<!-- RadioComponent&#45;&gt;AppModuleShared -->
<g id="edge17" class="edge">
<title>RadioComponent&#45;&gt;AppModuleShared</title>
<path fill="none" stroke="#000000" d="M369,-122.0449C369,-143.6623 369,-177 369,-177 369,-177 1304.9,-177 1304.9,-177"/>
<polygon fill="#000000" stroke="#000000" points="1304.9,-180.5001 1314.9,-177 1304.8999,-173.5001 1304.9,-180.5001"/>
</g>
<!-- AppComponent  -->
<g id="node19" class="node">
<title>AppComponent </title>
<polygon fill="#80b1d3" stroke="#000000" points="1430.439,-252 1321.561,-252 1321.561,-216 1430.439,-216 1430.439,-252"/>
<text text-anchor="middle" x="1376" y="-229.8" font-family="Times,serif" font-size="14.00" fill="#000000">AppComponent </text>
</g>
<!-- AppModuleShared&#45;&gt;AppComponent  -->
<g id="edge18" class="edge">
<title>AppModuleShared&#45;&gt;AppComponent </title>
<path fill="none" stroke="#000000" stroke-dasharray="1,5" d="M1376,-187.1061C1376,-187.1061 1376,-205.991 1376,-205.991"/>
<polygon fill="#000000" stroke="#000000" points="1372.5001,-205.9909 1376,-215.991 1379.5001,-205.991 1372.5001,-205.9909"/>
</g>
<!-- LoginService -->
<g id="node20" class="node">
<title>LoginService</title>
<ellipse fill="#fdb462" stroke="#000000" cx="225" cy="-104" rx="63.1209" ry="18"/>
<text text-anchor="middle" x="225" y="-99.8" font-family="Times,serif" font-size="14.00" fill="#000000">LoginService</text>
</g>
<!-- LoginService&#45;&gt;AppModuleShared -->
<g id="edge19" class="edge">
<title>LoginService&#45;&gt;AppModuleShared</title>
<path fill="none" stroke="#000000" d="M225,-122.0109C225,-144.4852 225,-180 225,-180 225,-180 1304.9299,-180 1304.9299,-180"/>
<polygon fill="#000000" stroke="#000000" points="1304.9299,-183.5001 1314.9299,-180 1304.9299,-176.5001 1304.9299,-183.5001"/>
</g>
<!-- StoreService -->
<g id="node21" class="node">
<title>StoreService</title>
<ellipse fill="#fdb462" stroke="#000000" cx="84" cy="-104" rx="60.2479" ry="18"/>
<text text-anchor="middle" x="84" y="-99.8" font-family="Times,serif" font-size="14.00" fill="#000000">StoreService</text>
</g>
<!-- StoreService&#45;&gt;AppModuleShared -->
<g id="edge20" class="edge">
<title>StoreService&#45;&gt;AppModuleShared</title>
<path fill="none" stroke="#000000" d="M84,-122.1532C84,-145.7566 84,-184 84,-184 84,-184 1304.5533,-184 1304.5533,-184"/>
<polygon fill="#000000" stroke="#000000" points="1304.5534,-187.5001 1314.5533,-184 1304.5533,-180.5001 1304.5534,-187.5001"/>
</g>
</g>
</svg>
